<svg width="257" height="257" viewBox="0 0 257 257" fill="none" xmlns="http://www.w3.org/2000/svg">
<g clip-path="url(#clip0_103_150)">
<mask id="mask0_103_150" style="mask-type:luminance" maskUnits="userSpaceOnUse" x="0" y="0" width="257" height="257">
<path d="M128.5 257C199.469 257 257 199.469 257 128.5C257 57.5314 199.469 0 128.5 0C57.5314 0 0 57.5314 0 128.5C0 199.469 57.5314 257 128.5 257Z" fill="white"/>
</mask>
<g mask="url(#mask0_103_150)">
<path d="M127.89 176.2C122.88 179.54 116.08 182.06 110.26 180.35C106.74 179.32 105.19 173.16 103.75 169.65C102.63 166.93 104.51 164.39 105.15 163.11L97.3199 160.56C97.3299 158.97 97.0499 157 95.6999 155.62C92.4899 152.36 86.0399 156.12 84.2999 153.24C82.6299 150.48 85.8999 147.72 86.9399 140.05C87.6499 134.78 86.8299 130.63 85.5799 124.05C84.6999 119.4 82.0199 113.04 80.7699 109.62L89.0699 100.3L113.16 85.4899L132.99 76.5499L142.18 73.2299L145.5 71.4399L152.7 101.06L149.33 119.59L140.39 137.57L167.79 142.42L141.21 163.91L142.94 169.14L134.77 179.69L127.89 176.18V176.2Z" fill="white"/>
<path fill-rule="evenodd" clip-rule="evenodd" d="M146.517 69.1561C147.225 69.4713 147.746 70.0967 147.929 70.8494L155.129 100.469C155.212 100.809 155.222 101.163 155.16 101.507L151.79 120.037C151.748 120.268 151.673 120.493 151.569 120.703L144.116 135.691L168.226 139.958C169.19 140.129 169.966 140.847 170.211 141.796C170.455 142.744 170.123 143.748 169.362 144.364L144.127 164.767L145.313 168.355C145.575 169.145 145.426 170.013 144.917 170.671L136.747 181.221C136.011 182.17 134.704 182.463 133.634 181.917L128.044 179.065C122.895 182.194 115.918 184.618 109.555 182.749L110.26 180.35L109.558 182.749C109.557 182.749 109.556 182.749 109.555 182.749C106.657 181.899 104.987 179.138 103.969 177.008C103.414 175.847 102.944 174.628 102.535 173.526C102.416 173.204 102.304 172.897 102.196 172.603C101.922 171.852 101.68 171.191 101.437 170.599L103.75 169.65L101.438 170.602C100.559 168.466 100.906 166.466 101.439 164.991C101.487 164.856 101.541 164.719 101.597 164.582L104.376 165.487L105.15 163.11L102.914 161.992C102.889 162.042 102.834 162.139 102.759 162.272C102.495 162.743 101.974 163.667 101.597 164.582L96.5458 162.937C95.511 162.6 94.8132 161.632 94.82 160.544C94.8288 159.14 94.5527 158.025 93.9155 157.371C93.9165 157.372 93.9176 157.373 93.9186 157.374L95.6999 155.62L93.9129 157.368C93.9137 157.369 93.9146 157.37 93.9155 157.371C93.6145 157.067 93.1883 156.855 92.4642 156.754C91.6852 156.645 90.7796 156.692 89.6414 156.78C89.5492 156.787 89.454 156.795 89.3562 156.803C88.3895 156.88 87.1658 156.977 86.0783 156.852C84.8016 156.705 83.1637 156.192 82.161 154.534L84.2998 153.24L82.1602 154.533C80.6327 152.007 81.5661 149.489 82.2438 147.66L82.2595 147.618C82.3321 147.422 82.4067 147.223 82.4827 147.02C83.1966 145.117 84.0316 142.892 84.4625 139.715C85.105 134.945 84.3962 131.214 83.1474 124.64L83.1235 124.515C82.4743 121.084 80.777 116.657 79.4308 113.147C79.0576 112.173 78.7113 111.27 78.4219 110.478C78.1058 109.613 78.2906 108.645 78.903 107.957L87.203 98.6373C87.3651 98.4552 87.553 98.2979 87.7606 98.1702L111.851 83.3602C111.941 83.3045 112.035 83.2546 112.132 83.2108L131.962 74.2708C132.021 74.2445 132.08 74.2204 132.141 74.1987L141.156 70.9416L144.314 69.2394C144.995 68.8718 145.809 68.841 146.517 69.1561ZM126.28 174.267C126.375 174.187 126.477 174.114 126.584 174.048C127.326 173.594 128.251 173.558 129.026 173.953L134.061 176.522L140.148 168.661L138.836 164.695C138.51 163.707 138.829 162.62 139.638 161.966L161.952 143.925L139.954 140.032C139.178 139.894 138.513 139.399 138.158 138.696C137.803 137.992 137.801 137.162 138.151 136.457L146.934 118.794L150.145 101.135L143.836 75.1775L143.366 75.4305C143.258 75.489 143.145 75.5393 143.029 75.5812L133.93 78.8685L114.333 87.7034L90.6924 102.237L83.6418 110.154C83.7521 110.443 83.8687 110.746 83.9901 111.062C85.3392 114.572 87.2916 119.651 88.036 123.583M126.28 174.267C121.528 177.375 115.645 179.327 110.965 177.951L110.962 177.951C110.342 177.769 109.477 176.937 108.48 174.852C108.028 173.905 107.621 172.862 107.224 171.789C107.125 171.523 107.025 171.25 106.925 170.975C106.638 170.19 106.346 169.391 106.063 168.701L106.062 168.698C105.821 168.114 105.854 167.484 106.141 166.689C106.364 166.073 106.596 165.665 106.866 165.19C107.024 164.91 107.196 164.608 107.386 164.228C107.711 163.577 107.737 162.817 107.456 162.145C107.176 161.474 106.616 160.958 105.924 160.733L99.7056 158.708C99.4925 157.144 98.9187 155.335 97.487 153.872L97.4813 153.866C96.1775 152.542 94.5942 152.002 93.1542 151.802C91.7665 151.608 90.349 151.71 89.256 151.795L89.1368 151.804C87.9769 151.894 87.2312 151.952 86.6494 151.885C86.521 151.87 86.435 151.853 86.3804 151.839C86.2828 151.617 86.2727 151.177 86.9479 149.355C87.017 149.168 87.0902 148.974 87.1667 148.77C87.891 146.846 88.9078 144.143 89.4173 140.386L89.4176 140.384C90.1696 134.802 89.3215 130.342 88.1367 124.113C88.1034 123.938 88.0698 123.761 88.036 123.583M86.2991 151.811C86.2999 151.81 86.308 151.813 86.3205 151.821C86.3045 151.815 86.2982 151.811 86.2991 151.811Z" fill="#350E1B"/>
<path d="M101.597 164.582L104.376 165.487L105.15 163.11L102.914 161.992C102.889 162.042 102.834 162.139 102.759 162.272C102.495 162.743 101.974 163.667 101.597 164.582Z" fill="#350E1B"/>
<path d="M124.52 256.95C121.04 257.48 116.05 258.19 110.01 258.87C100.97 259.87 93.0799 260.73 82.9499 260.66C75.7099 260.61 70.3099 260.55 63.0399 259.13C54.0199 257.37 47.8099 254.64 46.4399 254.02C42.2399 252.14 36.4999 249.5 30.6099 244.06C27.6099 241.29 25.7199 238.72 21.9299 233.59C16.4799 226.2 13.4799 222.07 14.7799 220.06C15.2399 219.34 22.3099 219.25 29.6799 221.1" stroke="#350E1B" stroke-width="5" stroke-miterlimit="10" stroke-linecap="round"/>
<path d="M251.73 103.47C239.11 124.63 232.72 106.26 230.09 84.73C227.37 69.6 225.06 72.03 211 68.59C186.94 63.54 161.6 69.33 139.63 78.86C151.1 98.18 131.95 126 126.61 147.54C123.34 158.5 128.75 165.79 136.39 169.45C133.48 172.5 130.25 175.48 126.79 178.4C123.94 180.42 121.33 181.97 119.14 183.14C114.49 185.63 105.48 190.34 93.1 191.05C89.1 191.28 83.18 191.56 76.25 189.01C69.42 186.49 65.87 182.79 65.01 181.86C63.05 179.73 59.01 175.36 59.91 170.37C60.01 169.82 60.55 166.78 62.97 165.52C65.91 163.99 69.49 166.16 70.12 166.54C74.12 168.96 74.29 172.78 75.74 172.67C77.7 172.52 79.85 165.26 78.55 158.37C77.18 151.12 72.46 146.75 71.14 145.6C69.56 144.23 64.13 139.65 56.08 139.99C50.69 140.21 46.23 142.02 42.52 144.47C39.46 146.49 34.18 151.23 30.8 159.14C28.75 163.9 28.48 168.21 28.48 171.36C24.86 170.43 25.6 171 24.1 169.87C20.25 166.97 18.19 163.24 16.27 159.66C13.67 154.81 13.23 152.06 12.53 152.17C11.54 152.33 11.77 157.99 11.85 168.85C11.95 182.7 11.64 180.94 11.85 183.15C12.08 185.64 13.4 198 21.72 210.72C23.85 213.98 27.08 218.82 32.96 223.32C36.56 226.07 39.75 227.62 42.15 228.77C46.03 230.62 51.88 232.93 59.51 234.21L62.52 240.11C70.94 254.42 97.44 255.88 110.01 258.86C160.29 411.2 197.14 239.21 218.52 210.86L242.52 186.59C243.26 179.62 251.17 181.26 250.52 174.83C258.27 179.46 243.71 170.28 250.16 160.31C252.85 131.21 253.57 121.73 251.73 103.48V103.47ZM28.5 173.18C28.49 172.63 28.48 172.03 28.48 171.38C28.89 178.41 30.3 184.79 32.78 190.49C32.94 190.87 33.11 191.25 33.29 191.63C33.12 191.29 32.94 190.94 32.77 190.58C32.08 189.13 31.4 187.5 30.79 185.69C28.67 179.4 28.52 174.28 28.49 173.18H28.5ZM33.36 191.75C34.8 194.54 36.23 196.59 37.18 197.94C39.81 201.67 42.5 204.45 44.59 206.37C39.71 202.22 36 197.33 33.36 191.75ZM126.85 178.36L135.37 171.29C132.43 174.13 129.54 176.45 126.85 178.36ZM148.13 152.64C146.42 150.22 146.54 145.82 150.69 141.77C150.53 145.48 149.64 149.1 148.13 152.64Z" fill="#350E1B"/>
<path fill-rule="evenodd" clip-rule="evenodd" d="M109.426 124.571C109.041 124.801 108.604 125.114 108.02 125.547C106.793 126.459 105.843 127.511 105.206 128.353C104.889 128.772 104.663 129.121 104.529 129.35C104.503 129.395 104.481 129.433 104.464 129.465C104.16 130.343 103.377 131.017 102.392 131.133C101.021 131.294 99.7784 130.313 99.617 128.942C99.5649 128.499 99.6471 128.148 99.6666 128.064C99.667 128.062 99.6674 128.061 99.6677 128.059C99.6998 127.922 99.7373 127.81 99.7612 127.744C99.8103 127.607 99.8647 127.486 99.9057 127.4C99.992 127.218 100.099 127.02 100.217 126.82C100.455 126.413 100.791 125.902 101.218 125.337C102.071 124.209 103.346 122.791 105.039 121.533L105.041 121.532C105.057 121.519 105.074 121.507 105.091 121.495C106.144 120.714 107.51 119.7 109.074 119.353C110.98 118.93 112.716 119.531 114.351 120.786C115.447 121.627 115.654 123.196 114.814 124.291C113.973 125.387 112.404 125.594 111.308 124.753C110.853 124.405 110.571 124.286 110.429 124.245C110.317 124.213 110.25 124.214 110.158 124.234C110.03 124.263 109.806 124.344 109.426 124.571Z" fill="#350E1B"/>
<path d="M49.4999 61.76C46.0099 60.76 40.1699 59.52 33.1599 60.23C2.09994 63.38 -25.5301 102.31 -16.8801 121.51C-16.3101 122.77 -14.2701 126.86 -7.69006 130.7C-1.09006 134.55 17.1999 142.3 70.9499 117.42C107.46 100.52 109.13 92.27 144.48 78.61C162.71 71.57 174.9 66.99 191.97 66.87C222.24 66.65 239.86 80.61 244.06 75.55C247.29 71.65 241.51 57.69 200.66 12.74C197.22 17.77 192.2 24.01 188.4 22.95C186.2 22.34 185.28 19.51 184.83 18.35C180.12 6.53996 155.37 1.00996 141.93 -0.0300407C119.27 -1.78004 102.32 7.17996 94.9499 11.2C77.2099 20.88 67.1299 33.94 62.7799 40.31C51.7899 56.4 48.5699 72.02 47.4599 80.14" fill="#350E1B"/>
<path d="M128.5 254.22C197.933 254.22 254.22 197.933 254.22 128.5C254.22 59.0668 197.933 2.78003 128.5 2.78003C59.0667 2.78003 2.77991 59.0668 2.77991 128.5C2.77991 197.933 59.0667 254.22 128.5 254.22Z" stroke="#350E1B" stroke-width="5" stroke-miterlimit="10"/>
<path d="M188.49 25.44C169.38 25.71 148.34 37.93 150.01 59.33L147.14 59.72C145.16 48.71 140.74 38.03 134.83 28.52L136.39 27.9C138.91 44.71 130.51 61.33 119.2 73.24C129.91 61.11 137.7 44.6 134.69 28.2L133.91 24.14C141.43 34.67 147.27 46.46 149.99 59.19L147.12 59.58C146.58 54.35 147.25 48.88 149.37 43.94C151.46 38.99 154.9 34.68 159.01 31.31C167.26 24.57 177.74 21.09 188.3 20.45C191.63 20.35 191.87 25.27 188.5 25.45L188.49 25.44Z" fill="white"/>
</g>
</g>
<defs>
<clipPath id="clip0_103_150">
<rect width="257" height="257" fill="white"/>
</clipPath>
</defs>
</svg>
