<?xml version="1.0" encoding="utf-8"?>
<!-- Generator: Adobe Illustrator 28.3.0, SVG Export Plug-In . SVG Version: 6.00 Build 0)  -->
<svg version="1.1" id="Calque_1" xmlns="http://www.w3.org/2000/svg" xmlns:xlink="http://www.w3.org/1999/xlink" x="0px" y="0px"
	 viewBox="0 0 179 179" style="enable-background:new 0 0 179 179;" xml:space="preserve">
<style type="text/css">
	.st0{fill-rule:evenodd;clip-rule:evenodd;}
</style>
<path class="st0" d="M76.2,86.8c-0.3,0.2-0.6,0.4-1,0.7c-0.9,0.6-1.5,1.4-2,2c-0.2,0.3-0.4,0.5-0.5,0.7c0,0,0,0.1,0,0.1
	c-0.2,0.6-0.8,1.1-1.4,1.2c-1,0.1-1.8-0.6-1.9-1.5c0-0.3,0-0.6,0-0.6l0,0c0-0.1,0-0.2,0.1-0.2c0-0.1,0.1-0.2,0.1-0.2
	c0.1-0.1,0.1-0.3,0.2-0.4c0.2-0.3,0.4-0.6,0.7-1c0.6-0.8,1.5-1.8,2.7-2.6l0,0c0,0,0,0,0,0c0.7-0.5,1.7-1.2,2.8-1.5
	c1.3-0.3,2.5,0.1,3.7,1c0.8,0.6,0.9,1.7,0.3,2.4c-0.6,0.8-1.7,0.9-2.4,0.3c-0.3-0.2-0.5-0.3-0.6-0.4c-0.1,0-0.1,0-0.2,0
	C76.6,86.5,76.5,86.6,76.2,86.8z"/>
<path class="st0" d="M104.9,98.8L104.9,98.8c0.1,0,0.1-0.1,0.1-0.1C104.9,98.8,104.9,98.8,104.9,98.8z"/>
<path d="M170.5,51.4c-7.5-15.8-19.4-29-34.1-38.1c-4.7-2.9-9.7-5.4-15-7.4c-9.6-3.7-20-5.7-30.9-5.8h-1C56.1,0,27,18.3,11.6,45.4
	C4.2,58.4,0,73.5,0,89.5c0,1.2,0,2.5,0.1,3.7c0.5,12,3.3,23.5,8.1,33.8c6.5,14.1,16.6,26.3,29.1,35.2C52,172.8,70,179,89.5,179
	c49.4,0,89.5-40.1,89.5-89.5C179,75.9,176,62.9,170.5,51.4z M69.6,6c-1.3,0.7-2.5,1.3-3.4,1.8c-12.3,6.7-19.4,15.8-22.4,20.3
	c-7.7,11.2-9.9,22.1-10.7,27.7L34.5,43C32,42.3,28,41.5,23.1,42c-2,0.2-3.9,0.6-5.8,1.2C29.1,24.8,47.7,11.2,69.6,6z M83,127.6
	c-3.2,1.7-9.5,5-18.1,5.5c-2.8,0.2-6.9,0.3-11.7-1.4c-4.8-1.8-7.2-4.3-7.8-5l0,0c-1.4-1.5-4.2-4.5-3.5-8c0-0.2,0.2-0.8,0.5-1.5
	s0.8-1.4,1.7-1.9c2-1.1,4.5,0.4,5,0.7l0,0c1.6,1,2.3,2.2,2.8,3.1c0.4,0.7,0.7,1.2,1.1,1.1c1.4-0.1,2.9-5.2,2-10
	c-1-5-4.2-8.1-5.2-8.9c-1.1-0.9-4.9-4.1-10.5-3.9c-3.8,0.2-6.9,1.4-9.4,3.1c-2.1,1.4-5.8,4.7-8.2,10.2c-1.4,3.3-1.6,6.3-1.6,8.5
	c-0.9-0.2-1.4-0.3-1.7-0.4c-0.7-0.1-0.7-0.1-1.4-0.7c-2.7-2-4.1-4.6-5.5-7.1c-0.9-1.6-1.4-2.9-1.8-3.8c-0.4-1-0.6-1.5-0.9-1.4
	c-0.6,0.1-0.6,3-0.5,8.5h0c0,0.9,0,1.8,0,2.7c-2.5-7.4-4.1-15.2-4.5-23.4c8.1,0.8,21.9-1,45.6-12c2.1-1,4.1-1.9,6-2.9
	c0.9,2.4,2.1,5.5,2.5,7.8l0,0.1c0.9,4.6,1.4,7.2,0.9,10.5c-0.3,2.2-0.9,3.8-1.4,5.1c0,0.1-0.1,0.3-0.2,0.4l0,0
	c-0.5,1.3-1.1,3-0.1,4.8h0c0.7,1.2,1.8,1.5,2.7,1.6c0.8,0.1,1.6,0,2.3,0h0l0.2,0c0.8-0.1,1.4-0.1,2,0c0.5,0.1,0.8,0.2,1,0.4
	c0.4,0.4,0.6,1.2,0.6,2.1v0.1c0,0.8,0.5,1.4,1.2,1.7l3.5,1.1c0,0.1-0.1,0.2-0.1,0.3c-0.4,1-0.6,2.4,0,3.9c0.2,0.4,0.3,0.9,0.5,1.4
	c0.1,0.2,0.2,0.4,0.2,0.6c0.3,0.8,0.6,1.6,1,2.4c0.7,1.5,1.8,3.4,3.8,4l0.1,0v0l0.1,0c2.4,0.7,4.9,0.5,7.3-0.2l0.1,0
	C83.5,127.3,83.2,127.4,83,127.6z M95,118c-1.2,1.3-2.5,2.5-3.9,3.8l-1.2-0.6c-0.5-0.3-1.2-0.2-1.7,0.1c-0.1,0.1-0.1,0.1-0.2,0.2
	c-3.3,2.2-7.4,3.5-10.7,2.6h0c-0.4-0.1-1-0.7-1.7-2.2c-0.3-0.7-0.6-1.4-0.9-2.1c-0.1-0.2-0.1-0.4-0.2-0.6l0,0v0
	c-0.2-0.5-0.4-1.1-0.6-1.6c-0.1-0.2-0.1-0.4-0.1-0.6c0-0.3,0.1-0.5,0.2-0.8c0.1-0.4,0.3-0.6,0.4-0.9c0,0,0-0.1,0.1-0.1
	c0.1-0.2,0.2-0.4,0.4-0.7c0.2-0.5,0.2-1,0.1-1.5c-0.2-0.5-0.6-0.8-1.1-1l-4.3-1.4c-0.1-1.1-0.5-2.3-1.5-3.4c-0.9-0.9-2-1.3-3-1.4
	c-1-0.1-2-0.1-2.7,0l-0.1,0c-0.6,0-1,0.1-1.4,0.1c-0.1,0-0.3,0-0.4,0c-0.1,0-0.1,0-0.2,0c-0.1-0.2-0.1-0.5,0.4-1.7
	c0-0.1,0.1-0.3,0.2-0.4c0.5-1.3,1.2-3.2,1.6-5.8c0.1-1,0.2-2,0.2-2.9c0-2.7-0.5-5.2-1.1-8.4l-0.1-0.4c-0.5-2.7-1.9-6.3-2.8-8.7l0,0
	c6.4-3.3,10.9-6.2,15.1-8.8c6.7-4.2,12.7-8,24.2-12.6c4.8,9.4-0.1,21.4-4.6,32.8c-2,4.9-3.9,9.7-5,14.1
	C85.9,110.4,89.7,115.5,95,118z M105,98.8c-0.1,2.6-0.7,5-1.8,7.5C102,104.7,102.1,101.6,105,98.8c-0.1,0,0-0.1,0-0.1
	C105,98.8,105,98.8,105,98.8z M131.3,17.7L131.3,17.7c-13.3,0.2-28,8.7-26.8,23.6l-2,0.3c-1.2-6.8-3.8-13.4-7.2-19.4
	c0.6,10.8-5,21.2-12.2,28.9c7.5-8.5,12.9-20,10.8-31.4l-0.5-2.8c4,5.6,7.3,11.6,9.5,18.1c0.3-1.5,0.7-2.9,1.3-4.3
	c1.5-3.4,3.9-6.4,6.7-8.8c5.3-4.3,11.9-6.7,18.7-7.4c0.5,0,0.9-0.1,1.4-0.1c0.7,0.4,1.4,0.8,2.1,1.2c0,0.1,0.1,0.3,0.1,0.4
	C133,16.7,132.5,17.7,131.3,17.7z M160.3,59c-1-5.8-2-7.9-4.2-9c5.1,1.5,8.9,3.1,11.3,3.3c3,6.5,5.3,13.5,6.6,20.8
	C166.1,85.4,162,73.2,160.3,59z"/>
</svg>
