<svg width="256" height="256" viewBox="0 0 256 256" fill="none" xmlns="http://www.w3.org/2000/svg">
<g clip-path="url(#clip0_171_1661)">
<path d="M256 0H0V256H256V0Z" fill="white"/>
<path d="M24.96 16H16V24.96H24.96V16Z" fill="black"/>
<path d="M33.92 16H24.96V24.96H33.92V16Z" fill="black"/>
<path d="M42.88 16H33.92V24.96H42.88V16Z" fill="black"/>
<path d="M51.84 16H42.88V24.96H51.84V16Z" fill="black"/>
<path d="M60.8 16H51.84V24.96H60.8V16Z" fill="black"/>
<path d="M69.76 16H60.8V24.96H69.76V16Z" fill="black"/>
<path d="M78.72 16H69.76V24.96H78.72V16Z" fill="black"/>
<path d="M96.64 16H87.68V24.96H96.64V16Z" fill="black"/>
<path d="M105.6 16H96.64V24.96H105.6V16Z" fill="black"/>
<path d="M123.52 16H114.56V24.96H123.52V16Z" fill="black"/>
<path d="M132.48 16H123.52V24.96H132.48V16Z" fill="black"/>
<path d="M141.44 16H132.48V24.96H141.44V16Z" fill="black"/>
<path d="M168.32 16H159.36V24.96H168.32V16Z" fill="black"/>
<path d="M186.24 16H177.28V24.96H186.24V16Z" fill="black"/>
<path d="M195.2 16H186.24V24.96H195.2V16Z" fill="black"/>
<path d="M204.16 16H195.2V24.96H204.16V16Z" fill="black"/>
<path d="M213.12 16H204.16V24.96H213.12V16Z" fill="black"/>
<path d="M222.08 16H213.12V24.96H222.08V16Z" fill="black"/>
<path d="M231.04 16H222.08V24.96H231.04V16Z" fill="black"/>
<path d="M240 16H231.04V24.96H240V16Z" fill="black"/>
<path d="M24.96 24.96H16V33.92H24.96V24.96Z" fill="black"/>
<path d="M78.72 24.96H69.76L69.76 33.92H78.72V24.96Z" fill="black"/>
<path d="M168.32 24.96H159.36V33.92H168.32V24.96Z" fill="black"/>
<path d="M186.24 24.96H177.28V33.92H186.24V24.96Z" fill="black"/>
<path d="M240 24.96H231.04V33.92H240V24.96Z" fill="black"/>
<path d="M24.96 33.92H16V42.88H24.96V33.92Z" fill="black"/>
<path d="M42.88 33.92H33.92V42.88H42.88V33.92Z" fill="black"/>
<path d="M51.84 33.92H42.88V42.88H51.84V33.92Z" fill="black"/>
<path d="M60.8 33.92H51.84V42.88H60.8V33.92Z" fill="black"/>
<path d="M78.72 33.92H69.76V42.88H78.72V33.92Z" fill="black"/>
<path d="M105.6 33.92H96.64V42.88H105.6V33.92Z" fill="black"/>
<path d="M114.56 33.92H105.6V42.88H114.56V33.92Z" fill="black"/>
<path d="M123.52 33.92H114.56V42.88H123.52V33.92Z" fill="black"/>
<path d="M132.48 33.92H123.52V42.88H132.48V33.92Z" fill="black"/>
<path d="M150.4 33.92H141.44V42.88H150.4V33.92Z" fill="black"/>
<path d="M159.36 33.92H150.4V42.88H159.36V33.92Z" fill="black"/>
<path d="M168.32 33.92H159.36V42.88H168.32V33.92Z" fill="black"/>
<path d="M186.24 33.92H177.28V42.88H186.24V33.92Z" fill="black"/>
<path d="M204.16 33.92H195.2V42.88H204.16V33.92Z" fill="black"/>
<path d="M213.12 33.92H204.16V42.88H213.12V33.92Z" fill="black"/>
<path d="M222.08 33.92H213.12V42.88H222.08V33.92Z" fill="black"/>
<path d="M240 33.92H231.04V42.88H240V33.92Z" fill="black"/>
<path d="M24.96 42.88H16V51.84H24.96V42.88Z" fill="black"/>
<path d="M42.88 42.88H33.92V51.84H42.88V42.88Z" fill="black"/>
<path d="M51.84 42.88H42.88V51.84H51.84V42.88Z" fill="black"/>
<path d="M60.8 42.88H51.84V51.84H60.8V42.88Z" fill="black"/>
<path d="M78.72 42.88H69.76V51.84H78.72V42.88Z" fill="black"/>
<path d="M105.6 42.88H96.64V51.84H105.6V42.88Z" fill="black"/>
<path d="M123.52 42.88H114.56V51.84H123.52V42.88Z" fill="black"/>
<path d="M132.48 42.88H123.52V51.84H132.48V42.88Z" fill="black"/>
<path d="M141.44 42.88H132.48V51.84H141.44V42.88Z" fill="black"/>
<path d="M150.4 42.88H141.44V51.84H150.4V42.88Z" fill="black"/>
<path d="M168.32 42.88H159.36V51.84H168.32V42.88Z" fill="black"/>
<path d="M186.24 42.88H177.28V51.84H186.24V42.88Z" fill="black"/>
<path d="M204.16 42.88H195.2V51.84H204.16V42.88Z" fill="black"/>
<path d="M213.12 42.88H204.16V51.84H213.12V42.88Z" fill="black"/>
<path d="M222.08 42.88H213.12V51.84H222.08V42.88Z" fill="black"/>
<path d="M240 42.88H231.04V51.84H240V42.88Z" fill="black"/>
<path d="M24.96 51.84H16V60.8H24.96V51.84Z" fill="black"/>
<path d="M42.88 51.84H33.92V60.8H42.88V51.84Z" fill="black"/>
<path d="M51.84 51.84H42.88V60.8H51.84V51.84Z" fill="black"/>
<path d="M60.8 51.84H51.84V60.8H60.8V51.84Z" fill="black"/>
<path d="M78.72 51.84H69.76V60.8H78.72V51.84Z" fill="black"/>
<path d="M96.64 51.84H87.68V60.8H96.64V51.84Z" fill="black"/>
<path d="M159.36 51.84H150.4L150.4 60.8H159.36V51.84Z" fill="black"/>
<path d="M186.24 51.84H177.28V60.8H186.24V51.84Z" fill="black"/>
<path d="M204.16 51.84H195.2V60.8H204.16V51.84Z" fill="black"/>
<path d="M213.12 51.84H204.16V60.8H213.12V51.84Z" fill="black"/>
<path d="M222.08 51.84H213.12V60.8H222.08V51.84Z" fill="black"/>
<path d="M240 51.84H231.04V60.8H240V51.84Z" fill="black"/>
<path d="M24.96 60.8H16V69.76H24.96V60.8Z" fill="black"/>
<path d="M78.72 60.8H69.76V69.76H78.72V60.8Z" fill="black"/>
<path d="M114.56 60.8H105.6V69.76H114.56V60.8Z" fill="black"/>
<path d="M141.44 60.8H132.48V69.76H141.44V60.8Z" fill="black"/>
<path d="M159.36 60.8H150.4V69.76H159.36V60.8Z" fill="black"/>
<path d="M186.24 60.8H177.28V69.76H186.24V60.8Z" fill="black"/>
<path d="M240 60.8H231.04V69.76H240V60.8Z" fill="black"/>
<path d="M24.96 69.76H16V78.72H24.96V69.76Z" fill="black"/>
<path d="M33.92 69.76L24.96 69.76V78.72H33.92V69.76Z" fill="black"/>
<path d="M42.88 69.76H33.92V78.72H42.88V69.76Z" fill="black"/>
<path d="M51.84 69.76H42.88V78.72H51.84V69.76Z" fill="black"/>
<path d="M60.8 69.76H51.84V78.72H60.8V69.76Z" fill="black"/>
<path d="M69.76 69.76L60.8 69.76V78.72H69.76L69.76 69.76Z" fill="black"/>
<path d="M78.72 69.76H69.76L69.76 78.72H78.72V69.76Z" fill="black"/>
<path d="M96.64 69.76H87.68V78.72H96.64V69.76Z" fill="black"/>
<path d="M114.56 69.76H105.6V78.72H114.56V69.76Z" fill="black"/>
<path d="M132.48 69.76L123.52 69.76V78.72H132.48V69.76Z" fill="black"/>
<path d="M150.4 69.76H141.44V78.72H150.4L150.4 69.76Z" fill="black"/>
<path d="M168.32 69.76L159.36 69.76V78.72H168.32V69.76Z" fill="black"/>
<path d="M186.24 69.76H177.28V78.72H186.24V69.76Z" fill="black"/>
<path d="M195.2 69.76L186.24 69.76V78.72H195.2V69.76Z" fill="black"/>
<path d="M204.16 69.76H195.2V78.72H204.16V69.76Z" fill="black"/>
<path d="M213.12 69.76H204.16V78.72H213.12V69.76Z" fill="black"/>
<path d="M222.08 69.76H213.12V78.72H222.08V69.76Z" fill="black"/>
<path d="M231.04 69.76L222.08 69.76V78.72H231.04V69.76Z" fill="black"/>
<path d="M240 69.76H231.04V78.72H240V69.76Z" fill="black"/>
<path d="M96.64 78.72H87.68V87.68H96.64V78.72Z" fill="black"/>
<path d="M105.6 78.72H96.64V87.68H105.6V78.72Z" fill="black"/>
<path d="M114.56 78.72H105.6V87.68H114.56V78.72Z" fill="black"/>
<path d="M150.4 78.72H141.44V87.68H150.4V78.72Z" fill="black"/>
<path d="M159.36 78.72H150.4V87.68H159.36V78.72Z" fill="black"/>
<path d="M168.32 78.72H159.36V87.68H168.32V78.72Z" fill="black"/>
<path d="M24.96 87.68H16V96.64H24.96V87.68Z" fill="black"/>
<path d="M51.84 87.68H42.88V96.64H51.84V87.68Z" fill="black"/>
<path d="M60.8 87.68H51.84V96.64H60.8V87.68Z" fill="black"/>
<path d="M69.76 87.68H60.8V96.64H69.76V87.68Z" fill="black"/>
<path d="M78.72 87.68H69.76V96.64H78.72V87.68Z" fill="black"/>
<path d="M87.68 87.68H78.72V96.64H87.68V87.68Z" fill="black"/>
<path d="M96.64 87.68H87.68V96.64H96.64V87.68Z" fill="black"/>
<path d="M105.6 87.68H96.64V96.64H105.6V87.68Z" fill="black"/>
<path d="M123.52 87.68H114.56V96.64H123.52V87.68Z" fill="black"/>
<path d="M132.48 87.68H123.52V96.64H132.48V87.68Z" fill="black"/>
<path d="M150.4 87.68H141.44V96.64H150.4V87.68Z" fill="black"/>
<path d="M177.28 87.68H168.32V96.64H177.28V87.68Z" fill="black"/>
<path d="M186.24 87.68H177.28V96.64H186.24V87.68Z" fill="black"/>
<path d="M204.16 87.68H195.2V96.64H204.16V87.68Z" fill="black"/>
<path d="M240 87.68H231.04V96.64H240V87.68Z" fill="black"/>
<path d="M33.92 96.64H24.96V105.6H33.92V96.64Z" fill="black"/>
<path d="M69.76 96.64H60.8V105.6H69.76V96.64Z" fill="black"/>
<path d="M87.68 96.64H78.72V105.6H87.68V96.64Z" fill="black"/>
<path d="M96.64 96.64H87.68V105.6H96.64V96.64Z" fill="black"/>
<path d="M132.48 96.64H123.52V105.6H132.48V96.64Z" fill="black"/>
<path d="M177.28 96.64H168.32V105.6H177.28V96.64Z" fill="black"/>
<path d="M204.16 96.64H195.2V105.6H204.16V96.64Z" fill="black"/>
<path d="M222.08 96.64H213.12V105.6H222.08V96.64Z" fill="black"/>
<path d="M240 96.64H231.04V105.6H240V96.64Z" fill="black"/>
<path d="M24.96 105.6H16V114.56H24.96V105.6Z" fill="black"/>
<path d="M33.92 105.6H24.96V114.56H33.92V105.6Z" fill="black"/>
<path d="M51.84 105.6H42.88V114.56H51.84V105.6Z" fill="black"/>
<path d="M69.76 105.6H60.8V114.56H69.76V105.6Z" fill="black"/>
<path d="M78.72 105.6H69.76V114.56H78.72V105.6Z" fill="black"/>
<path d="M96.64 105.6H87.68V114.56H96.64V105.6Z" fill="black"/>
<path d="M123.52 105.6H114.56V114.56H123.52V105.6Z" fill="black"/>
<path d="M141.44 105.6H132.48V114.56H141.44V105.6Z" fill="black"/>
<path d="M150.4 105.6H141.44V114.56H150.4V105.6Z" fill="black"/>
<path d="M168.32 105.6H159.36V114.56H168.32V105.6Z" fill="black"/>
<path d="M177.28 105.6H168.32V114.56H177.28V105.6Z" fill="black"/>
<path d="M186.24 105.6H177.28V114.56H186.24V105.6Z" fill="black"/>
<path d="M195.2 105.6H186.24V114.56H195.2V105.6Z" fill="black"/>
<path d="M213.12 105.6H204.16V114.56H213.12V105.6Z" fill="black"/>
<path d="M222.08 105.6H213.12V114.56H222.08V105.6Z" fill="black"/>
<path d="M240 105.6H231.04V114.56H240V105.6Z" fill="black"/>
<path d="M24.96 114.56H16V123.52H24.96V114.56Z" fill="black"/>
<path d="M33.92 114.56H24.96V123.52H33.92V114.56Z" fill="black"/>
<path d="M42.88 114.56H33.92V123.52H42.88V114.56Z" fill="black"/>
<path d="M51.84 114.56H42.88V123.52H51.84V114.56Z" fill="black"/>
<path d="M87.68 114.56H78.72V123.52H87.68V114.56Z" fill="black"/>
<path d="M105.6 114.56H96.64V123.52H105.6V114.56Z" fill="black"/>
<path d="M114.56 114.56H105.6V123.52H114.56V114.56Z" fill="black"/>
<path d="M132.48 114.56H123.52V123.52H132.48V114.56Z" fill="black"/>
<path d="M168.32 114.56H159.36V123.52H168.32V114.56Z" fill="black"/>
<path d="M186.24 114.56H177.28V123.52H186.24V114.56Z" fill="black"/>
<path d="M195.2 114.56H186.24V123.52H195.2V114.56Z" fill="black"/>
<path d="M240 114.56H231.04V123.52H240V114.56Z" fill="black"/>
<path d="M24.96 123.52H16V132.48H24.96V123.52Z" fill="black"/>
<path d="M33.92 123.52H24.96V132.48H33.92V123.52Z" fill="black"/>
<path d="M42.88 123.52H33.92V132.48H42.88V123.52Z" fill="black"/>
<path d="M78.72 123.52H69.76V132.48H78.72V123.52Z" fill="black"/>
<path d="M87.68 123.52H78.72V132.48H87.68V123.52Z" fill="black"/>
<path d="M96.64 123.52H87.68V132.48H96.64V123.52Z" fill="black"/>
<path d="M123.52 123.52H114.56V132.48H123.52V123.52Z" fill="black"/>
<path d="M132.48 123.52H123.52V132.48H132.48V123.52Z" fill="black"/>
<path d="M159.36 123.52H150.4V132.48H159.36V123.52Z" fill="black"/>
<path d="M177.28 123.52H168.32V132.48H177.28V123.52Z" fill="black"/>
<path d="M186.24 123.52H177.28V132.48H186.24V123.52Z" fill="black"/>
<path d="M204.16 123.52H195.2V132.48H204.16V123.52Z" fill="black"/>
<path d="M231.04 123.52H222.08V132.48H231.04V123.52Z" fill="black"/>
<path d="M240 123.52H231.04V132.48H240V123.52Z" fill="black"/>
<path d="M24.96 132.48H16V141.44H24.96V132.48Z" fill="black"/>
<path d="M33.92 132.48H24.96V141.44H33.92V132.48Z" fill="black"/>
<path d="M51.84 132.48H42.88V141.44H51.84V132.48Z" fill="black"/>
<path d="M69.76 132.48H60.8V141.44H69.76L69.76 132.48Z" fill="black"/>
<path d="M105.6 132.48H96.64V141.44H105.6V132.48Z" fill="black"/>
<path d="M141.44 132.48H132.48V141.44H141.44V132.48Z" fill="black"/>
<path d="M177.28 132.48H168.32V141.44H177.28V132.48Z" fill="black"/>
<path d="M222.08 132.48H213.12V141.44H222.08V132.48Z" fill="black"/>
<path d="M240 132.48H231.04V141.44H240V132.48Z" fill="black"/>
<path d="M24.96 141.44H16V150.4H24.96V141.44Z" fill="black"/>
<path d="M33.92 141.44H24.96V150.4H33.92V141.44Z" fill="black"/>
<path d="M42.88 141.44H33.92V150.4H42.88V141.44Z" fill="black"/>
<path d="M51.84 141.44H42.88V150.4H51.84V141.44Z" fill="black"/>
<path d="M60.8 141.44H51.84V150.4H60.8V141.44Z" fill="black"/>
<path d="M69.76 141.44H60.8V150.4H69.76V141.44Z" fill="black"/>
<path d="M78.72 141.44H69.76V150.4H78.72V141.44Z" fill="black"/>
<path d="M87.68 141.44H78.72V150.4H87.68V141.44Z" fill="black"/>
<path d="M114.56 141.44H105.6V150.4H114.56V141.44Z" fill="black"/>
<path d="M141.44 141.44H132.48V150.4H141.44V141.44Z" fill="black"/>
<path d="M150.4 141.44H141.44V150.4H150.4V141.44Z" fill="black"/>
<path d="M159.36 141.44H150.4V150.4H159.36V141.44Z" fill="black"/>
<path d="M168.32 141.44H159.36V150.4H168.32V141.44Z" fill="black"/>
<path d="M177.28 141.44H168.32V150.4H177.28V141.44Z" fill="black"/>
<path d="M204.16 141.44H195.2V150.4H204.16V141.44Z" fill="black"/>
<path d="M222.08 141.44H213.12V150.4H222.08V141.44Z" fill="black"/>
<path d="M231.04 141.44H222.08V150.4H231.04V141.44Z" fill="black"/>
<path d="M240 141.44H231.04V150.4H240V141.44Z" fill="black"/>
<path d="M24.96 150.4H16V159.36H24.96V150.4Z" fill="black"/>
<path d="M51.84 150.4H42.88V159.36H51.84V150.4Z" fill="black"/>
<path d="M60.8 150.4H51.84V159.36H60.8V150.4Z" fill="black"/>
<path d="M96.64 150.4L87.68 150.4V159.36H96.64V150.4Z" fill="black"/>
<path d="M105.6 150.4L96.64 150.4V159.36H105.6V150.4Z" fill="black"/>
<path d="M114.56 150.4H105.6V159.36H114.56V150.4Z" fill="black"/>
<path d="M123.52 150.4L114.56 150.4V159.36H123.52V150.4Z" fill="black"/>
<path d="M141.44 150.4H132.48V159.36H141.44V150.4Z" fill="black"/>
<path d="M150.4 150.4H141.44V159.36H150.4V150.4Z" fill="black"/>
<path d="M159.36 150.4H150.4V159.36H159.36V150.4Z" fill="black"/>
<path d="M195.2 150.4L186.24 150.4V159.36H195.2V150.4Z" fill="black"/>
<path d="M213.12 150.4H204.16V159.36H213.12V150.4Z" fill="black"/>
<path d="M222.08 150.4H213.12V159.36H222.08V150.4Z" fill="black"/>
<path d="M231.04 150.4H222.08V159.36H231.04V150.4Z" fill="black"/>
<path d="M240 150.4H231.04V159.36H240V150.4Z" fill="black"/>
<path d="M24.96 159.36H16V168.32H24.96V159.36Z" fill="black"/>
<path d="M51.84 159.36H42.88V168.32H51.84V159.36Z" fill="black"/>
<path d="M60.8 159.36H51.84V168.32H60.8V159.36Z" fill="black"/>
<path d="M78.72 159.36H69.76V168.32H78.72V159.36Z" fill="black"/>
<path d="M105.6 159.36H96.64V168.32H105.6V159.36Z" fill="black"/>
<path d="M141.44 159.36H132.48V168.32H141.44V159.36Z" fill="black"/>
<path d="M150.4 159.36H141.44V168.32H150.4V159.36Z" fill="black"/>
<path d="M159.36 159.36H150.4V168.32H159.36V159.36Z" fill="black"/>
<path d="M168.32 159.36H159.36V168.32H168.32V159.36Z" fill="black"/>
<path d="M177.28 159.36H168.32V168.32H177.28V159.36Z" fill="black"/>
<path d="M186.24 159.36H177.28V168.32H186.24V159.36Z" fill="black"/>
<path d="M195.2 159.36H186.24V168.32H195.2V159.36Z" fill="black"/>
<path d="M204.16 159.36H195.2V168.32H204.16V159.36Z" fill="black"/>
<path d="M96.64 168.32H87.68V177.28H96.64V168.32Z" fill="black"/>
<path d="M105.6 168.32H96.64V177.28H105.6V168.32Z" fill="black"/>
<path d="M114.56 168.32H105.6V177.28H114.56V168.32Z" fill="black"/>
<path d="M132.48 168.32H123.52V177.28H132.48V168.32Z" fill="black"/>
<path d="M141.44 168.32H132.48V177.28H141.44V168.32Z" fill="black"/>
<path d="M168.32 168.32H159.36V177.28H168.32V168.32Z" fill="black"/>
<path d="M204.16 168.32H195.2V177.28H204.16V168.32Z" fill="black"/>
<path d="M213.12 168.32H204.16V177.28H213.12V168.32Z" fill="black"/>
<path d="M222.08 168.32H213.12V177.28H222.08V168.32Z" fill="black"/>
<path d="M240 168.32H231.04V177.28H240V168.32Z" fill="black"/>
<path d="M24.96 177.28H16V186.24H24.96V177.28Z" fill="black"/>
<path d="M33.92 177.28H24.96V186.24H33.92V177.28Z" fill="black"/>
<path d="M42.88 177.28H33.92V186.24H42.88V177.28Z" fill="black"/>
<path d="M51.84 177.28H42.88V186.24H51.84V177.28Z" fill="black"/>
<path d="M60.8 177.28H51.84V186.24H60.8V177.28Z" fill="black"/>
<path d="M69.76 177.28H60.8V186.24H69.76V177.28Z" fill="black"/>
<path d="M78.72 177.28H69.76V186.24H78.72V177.28Z" fill="black"/>
<path d="M96.64 177.28H87.68V186.24H96.64V177.28Z" fill="black"/>
<path d="M132.48 177.28H123.52V186.24H132.48V177.28Z" fill="black"/>
<path d="M168.32 177.28H159.36V186.24H168.32V177.28Z" fill="black"/>
<path d="M186.24 177.28H177.28V186.24H186.24V177.28Z" fill="black"/>
<path d="M204.16 177.28H195.2V186.24H204.16V177.28Z" fill="black"/>
<path d="M213.12 177.28H204.16V186.24H213.12V177.28Z" fill="black"/>
<path d="M222.08 177.28H213.12V186.24H222.08V177.28Z" fill="black"/>
<path d="M231.04 177.28H222.08V186.24H231.04V177.28Z" fill="black"/>
<path d="M24.96 186.24H16V195.2H24.96V186.24Z" fill="black"/>
<path d="M78.72 186.24H69.76L69.76 195.2H78.72V186.24Z" fill="black"/>
<path d="M96.64 186.24H87.68V195.2H96.64V186.24Z" fill="black"/>
<path d="M132.48 186.24H123.52V195.2H132.48V186.24Z" fill="black"/>
<path d="M141.44 186.24H132.48V195.2H141.44V186.24Z" fill="black"/>
<path d="M150.4 186.24H141.44V195.2H150.4V186.24Z" fill="black"/>
<path d="M159.36 186.24H150.4V195.2H159.36V186.24Z" fill="black"/>
<path d="M168.32 186.24H159.36V195.2H168.32V186.24Z" fill="black"/>
<path d="M204.16 186.24H195.2V195.2H204.16V186.24Z" fill="black"/>
<path d="M222.08 186.24H213.12V195.2H222.08V186.24Z" fill="black"/>
<path d="M240 186.24H231.04V195.2H240V186.24Z" fill="black"/>
<path d="M24.96 195.2H16V204.16H24.96V195.2Z" fill="black"/>
<path d="M42.88 195.2H33.92V204.16H42.88V195.2Z" fill="black"/>
<path d="M51.84 195.2H42.88V204.16H51.84V195.2Z" fill="black"/>
<path d="M60.8 195.2H51.84V204.16H60.8V195.2Z" fill="black"/>
<path d="M78.72 195.2H69.76V204.16H78.72V195.2Z" fill="black"/>
<path d="M96.64 195.2H87.68V204.16H96.64V195.2Z" fill="black"/>
<path d="M105.6 195.2H96.64V204.16H105.6V195.2Z" fill="black"/>
<path d="M141.44 195.2H132.48V204.16H141.44V195.2Z" fill="black"/>
<path d="M168.32 195.2H159.36V204.16H168.32V195.2Z" fill="black"/>
<path d="M177.28 195.2H168.32V204.16H177.28V195.2Z" fill="black"/>
<path d="M186.24 195.2H177.28V204.16H186.24V195.2Z" fill="black"/>
<path d="M195.2 195.2H186.24V204.16H195.2V195.2Z" fill="black"/>
<path d="M204.16 195.2H195.2V204.16H204.16V195.2Z" fill="black"/>
<path d="M231.04 195.2H222.08V204.16H231.04V195.2Z" fill="black"/>
<path d="M240 195.2H231.04V204.16H240V195.2Z" fill="black"/>
<path d="M24.96 204.16H16V213.12H24.96V204.16Z" fill="black"/>
<path d="M42.88 204.16H33.92V213.12H42.88V204.16Z" fill="black"/>
<path d="M51.84 204.16H42.88V213.12H51.84V204.16Z" fill="black"/>
<path d="M60.8 204.16H51.84V213.12H60.8V204.16Z" fill="black"/>
<path d="M78.72 204.16H69.76V213.12H78.72V204.16Z" fill="black"/>
<path d="M96.64 204.16H87.68V213.12H96.64V204.16Z" fill="black"/>
<path d="M132.48 204.16H123.52V213.12H132.48V204.16Z" fill="black"/>
<path d="M159.36 204.16H150.4V213.12H159.36V204.16Z" fill="black"/>
<path d="M186.24 204.16H177.28V213.12H186.24V204.16Z" fill="black"/>
<path d="M240 204.16H231.04V213.12H240V204.16Z" fill="black"/>
<path d="M24.96 213.12H16V222.08H24.96V213.12Z" fill="black"/>
<path d="M42.88 213.12H33.92V222.08H42.88V213.12Z" fill="black"/>
<path d="M51.84 213.12H42.88V222.08H51.84V213.12Z" fill="black"/>
<path d="M60.8 213.12H51.84V222.08H60.8V213.12Z" fill="black"/>
<path d="M78.72 213.12H69.76V222.08H78.72V213.12Z" fill="black"/>
<path d="M114.56 213.12H105.6V222.08H114.56V213.12Z" fill="black"/>
<path d="M123.52 213.12H114.56V222.08H123.52V213.12Z" fill="black"/>
<path d="M132.48 213.12H123.52V222.08H132.48V213.12Z" fill="black"/>
<path d="M159.36 213.12H150.4V222.08H159.36V213.12Z" fill="black"/>
<path d="M168.32 213.12H159.36V222.08H168.32V213.12Z" fill="black"/>
<path d="M186.24 213.12H177.28V222.08H186.24V213.12Z" fill="black"/>
<path d="M195.2 213.12H186.24V222.08H195.2V213.12Z" fill="black"/>
<path d="M204.16 213.12H195.2V222.08H204.16V213.12Z" fill="black"/>
<path d="M231.04 213.12H222.08V222.08H231.04V213.12Z" fill="black"/>
<path d="M240 213.12H231.04V222.08H240V213.12Z" fill="black"/>
<path d="M24.96 222.08H16V231.04H24.96V222.08Z" fill="black"/>
<path d="M78.72 222.08H69.76V231.04H78.72V222.08Z" fill="black"/>
<path d="M132.48 222.08H123.52V231.04H132.48V222.08Z" fill="black"/>
<path d="M150.4 222.08H141.44V231.04H150.4L150.4 222.08Z" fill="black"/>
<path d="M159.36 222.08H150.4L150.4 231.04H159.36V222.08Z" fill="black"/>
<path d="M168.32 222.08H159.36V231.04H168.32V222.08Z" fill="black"/>
<path d="M177.28 222.08H168.32V231.04H177.28V222.08Z" fill="black"/>
<path d="M204.16 222.08H195.2V231.04H204.16V222.08Z" fill="black"/>
<path d="M213.12 222.08H204.16V231.04H213.12V222.08Z" fill="black"/>
<path d="M222.08 222.08H213.12V231.04H222.08V222.08Z" fill="black"/>
<path d="M231.04 222.08H222.08V231.04H231.04V222.08Z" fill="black"/>
<path d="M240 222.08H231.04V231.04H240V222.08Z" fill="black"/>
<path d="M24.96 231.04H16V240H24.96V231.04Z" fill="black"/>
<path d="M33.92 231.04H24.96V240H33.92V231.04Z" fill="black"/>
<path d="M42.88 231.04H33.92V240H42.88V231.04Z" fill="black"/>
<path d="M51.84 231.04H42.88V240H51.84V231.04Z" fill="black"/>
<path d="M60.8 231.04H51.84V240H60.8V231.04Z" fill="black"/>
<path d="M69.76 231.04H60.8V240H69.76L69.76 231.04Z" fill="black"/>
<path d="M78.72 231.04H69.76L69.76 240H78.72V231.04Z" fill="black"/>
<path d="M96.64 231.04H87.68V240H96.64V231.04Z" fill="black"/>
<path d="M123.52 231.04H114.56V240H123.52V231.04Z" fill="black"/>
<path d="M132.48 231.04H123.52V240H132.48V231.04Z" fill="black"/>
<path d="M168.32 231.04H159.36V240H168.32V231.04Z" fill="black"/>
<path d="M195.2 231.04H186.24V240H195.2V231.04Z" fill="black"/>
<path d="M204.16 231.04H195.2V240H204.16V231.04Z" fill="black"/>
<path d="M213.12 231.04H204.16V240H213.12V231.04Z" fill="black"/>
<path d="M240 231.04H231.04V240H240V231.04Z" fill="black"/>
</g>
<defs>
<clipPath id="clip0_171_1661">
<rect width="256" height="256" fill="white"/>
</clipPath>
</defs>
</svg>
