<svg width="256" height="256" viewBox="0 0 256 256" fill="none" xmlns="http://www.w3.org/2000/svg">
<g clip-path="url(#clip0_171_1659)">
<path d="M256 0H0V256H256V0Z" fill="white"/>
<path d="M22.7879 16H16V22.7879H22.7879V16Z" fill="black"/>
<path d="M29.5758 16H22.7879V22.7879H29.5758V16Z" fill="black"/>
<path d="M36.3636 16H29.5758V22.7879H36.3636V16Z" fill="black"/>
<path d="M43.1515 16H36.3636V22.7879H43.1515V16Z" fill="black"/>
<path d="M49.9394 16H43.1515V22.7879H49.9394V16Z" fill="black"/>
<path d="M56.7273 16H49.9394V22.7879H56.7273V16Z" fill="black"/>
<path d="M63.5152 16H56.7273V22.7879H63.5152V16Z" fill="black"/>
<path d="M77.0909 16H70.303V22.7879H77.0909V16Z" fill="black"/>
<path d="M104.242 16H97.4546V22.7879H104.242V16Z" fill="black"/>
<path d="M131.394 16H124.606V22.7879H131.394V16Z" fill="black"/>
<path d="M138.182 16H131.394V22.7879H138.182V16Z" fill="black"/>
<path d="M144.97 16H138.182V22.7879H144.97V16Z" fill="black"/>
<path d="M158.545 16H151.758V22.7879H158.545V16Z" fill="black"/>
<path d="M172.121 16H165.333V22.7879H172.121V16Z" fill="black"/>
<path d="M185.697 16H178.909V22.7879H185.697V16Z" fill="black"/>
<path d="M199.273 16H192.485V22.7879H199.273V16Z" fill="black"/>
<path d="M206.061 16H199.273V22.7879H206.061V16Z" fill="black"/>
<path d="M212.848 16H206.061V22.7879H212.848V16Z" fill="black"/>
<path d="M219.636 16H212.848V22.7879H219.636V16Z" fill="black"/>
<path d="M226.424 16H219.636V22.7879H226.424V16Z" fill="black"/>
<path d="M233.212 16H226.424V22.7879H233.212V16Z" fill="black"/>
<path d="M240 16H233.212V22.7879H240V16Z" fill="black"/>
<path d="M22.7879 22.7879H16V29.5758H22.7879V22.7879Z" fill="black"/>
<path d="M63.5152 22.7879H56.7273V29.5758H63.5152V22.7879Z" fill="black"/>
<path d="M90.6667 22.7879H83.8788V29.5758H90.6667V22.7879Z" fill="black"/>
<path d="M117.818 22.7879H111.03V29.5758H117.818V22.7879Z" fill="black"/>
<path d="M138.182 22.7879H131.394V29.5758H138.182V22.7879Z" fill="black"/>
<path d="M151.758 22.7879H144.97L144.97 29.5758H151.758V22.7879Z" fill="black"/>
<path d="M158.545 22.7879H151.758V29.5758H158.545V22.7879Z" fill="black"/>
<path d="M165.333 22.7879H158.545V29.5758H165.333V22.7879Z" fill="black"/>
<path d="M172.121 22.7879H165.333V29.5758H172.121V22.7879Z" fill="black"/>
<path d="M178.909 22.7879H172.121V29.5758H178.909V22.7879Z" fill="black"/>
<path d="M199.273 22.7879H192.485V29.5758H199.273V22.7879Z" fill="black"/>
<path d="M240 22.7879H233.212V29.5758H240V22.7879Z" fill="black"/>
<path d="M22.7879 29.5758H16V36.3636H22.7879V29.5758Z" fill="black"/>
<path d="M36.3636 29.5758H29.5758V36.3636H36.3636V29.5758Z" fill="black"/>
<path d="M43.1515 29.5758H36.3636V36.3636H43.1515V29.5758Z" fill="black"/>
<path d="M49.9394 29.5758H43.1515V36.3636H49.9394V29.5758Z" fill="black"/>
<path d="M63.5152 29.5758H56.7273V36.3636H63.5152V29.5758Z" fill="black"/>
<path d="M90.6667 29.5758H83.8788V36.3636H90.6667V29.5758Z" fill="black"/>
<path d="M117.818 29.5758H111.03V36.3636H117.818V29.5758Z" fill="black"/>
<path d="M124.606 29.5758H117.818V36.3636H124.606V29.5758Z" fill="black"/>
<path d="M131.394 29.5758H124.606V36.3636H131.394V29.5758Z" fill="black"/>
<path d="M138.182 29.5758H131.394V36.3636H138.182V29.5758Z" fill="black"/>
<path d="M158.545 29.5758H151.758V36.3636H158.545V29.5758Z" fill="black"/>
<path d="M178.909 29.5758H172.121V36.3636H178.909V29.5758Z" fill="black"/>
<path d="M185.697 29.5758H178.909V36.3636H185.697V29.5758Z" fill="black"/>
<path d="M199.273 29.5758H192.485V36.3636H199.273V29.5758Z" fill="black"/>
<path d="M212.848 29.5758H206.061V36.3636H212.848V29.5758Z" fill="black"/>
<path d="M219.636 29.5758H212.848V36.3636H219.636V29.5758Z" fill="black"/>
<path d="M226.424 29.5758H219.636V36.3636H226.424V29.5758Z" fill="black"/>
<path d="M240 29.5758H233.212V36.3636H240V29.5758Z" fill="black"/>
<path d="M22.7879 36.3636H16V43.1515H22.7879V36.3636Z" fill="black"/>
<path d="M36.3636 36.3636H29.5758V43.1515H36.3636V36.3636Z" fill="black"/>
<path d="M43.1515 36.3636H36.3636V43.1515H43.1515V36.3636Z" fill="black"/>
<path d="M49.9394 36.3636H43.1515V43.1515H49.9394V36.3636Z" fill="black"/>
<path d="M63.5152 36.3636H56.7273V43.1515H63.5152V36.3636Z" fill="black"/>
<path d="M77.0909 36.3636H70.303V43.1515H77.0909V36.3636Z" fill="black"/>
<path d="M83.8788 36.3636H77.0909V43.1515H83.8788V36.3636Z" fill="black"/>
<path d="M90.6667 36.3636H83.8788V43.1515H90.6667V36.3636Z" fill="black"/>
<path d="M104.242 36.3636H97.4546V43.1515H104.242V36.3636Z" fill="black"/>
<path d="M117.818 36.3636H111.03V43.1515H117.818V36.3636Z" fill="black"/>
<path d="M124.606 36.3636H117.818V43.1515H124.606V36.3636Z" fill="black"/>
<path d="M131.394 36.3636H124.606V43.1515H131.394V36.3636Z" fill="black"/>
<path d="M144.97 36.3636H138.182V43.1515H144.97V36.3636Z" fill="black"/>
<path d="M158.545 36.3636H151.758V43.1515H158.545V36.3636Z" fill="black"/>
<path d="M172.121 36.3636H165.333V43.1515H172.121V36.3636Z" fill="black"/>
<path d="M178.909 36.3636H172.121V43.1515H178.909V36.3636Z" fill="black"/>
<path d="M185.697 36.3636H178.909V43.1515H185.697V36.3636Z" fill="black"/>
<path d="M199.273 36.3636H192.485V43.1515H199.273V36.3636Z" fill="black"/>
<path d="M212.848 36.3636H206.061V43.1515H212.848V36.3636Z" fill="black"/>
<path d="M219.636 36.3636H212.848V43.1515H219.636V36.3636Z" fill="black"/>
<path d="M226.424 36.3636H219.636V43.1515H226.424V36.3636Z" fill="black"/>
<path d="M240 36.3636H233.212V43.1515H240V36.3636Z" fill="black"/>
<path d="M22.7879 43.1515H16V49.9394H22.7879V43.1515Z" fill="black"/>
<path d="M36.3636 43.1515H29.5758V49.9394H36.3636V43.1515Z" fill="black"/>
<path d="M43.1515 43.1515H36.3636V49.9394H43.1515V43.1515Z" fill="black"/>
<path d="M49.9394 43.1515H43.1515V49.9394H49.9394V43.1515Z" fill="black"/>
<path d="M63.5152 43.1515H56.7273V49.9394H63.5152V43.1515Z" fill="black"/>
<path d="M97.4546 43.1515H90.6667V49.9394H97.4546V43.1515Z" fill="black"/>
<path d="M117.818 43.1515H111.03V49.9394H117.818V43.1515Z" fill="black"/>
<path d="M151.758 43.1515H144.97L144.97 49.9394H151.758V43.1515Z" fill="black"/>
<path d="M185.697 43.1515H178.909V49.9394H185.697V43.1515Z" fill="black"/>
<path d="M199.273 43.1515H192.485V49.9394H199.273V43.1515Z" fill="black"/>
<path d="M212.848 43.1515H206.061V49.9394H212.848V43.1515Z" fill="black"/>
<path d="M219.636 43.1515H212.848V49.9394H219.636V43.1515Z" fill="black"/>
<path d="M226.424 43.1515H219.636V49.9394H226.424V43.1515Z" fill="black"/>
<path d="M240 43.1515H233.212V49.9394H240V43.1515Z" fill="black"/>
<path d="M22.7879 49.9394H16V56.7273H22.7879V49.9394Z" fill="black"/>
<path d="M63.5152 49.9394H56.7273V56.7273H63.5152V49.9394Z" fill="black"/>
<path d="M77.0909 49.9394H70.303V56.7273H77.0909V49.9394Z" fill="black"/>
<path d="M83.8788 49.9394H77.0909V56.7273H83.8788V49.9394Z" fill="black"/>
<path d="M90.6667 49.9394H83.8788V56.7273H90.6667V49.9394Z" fill="black"/>
<path d="M104.242 49.9394H97.4546V56.7273H104.242V49.9394Z" fill="black"/>
<path d="M111.03 49.9394H104.242V56.7273H111.03V49.9394Z" fill="black"/>
<path d="M117.818 49.9394H111.03V56.7273H117.818V49.9394Z" fill="black"/>
<path d="M144.97 49.9394H138.182V56.7273H144.97L144.97 49.9394Z" fill="black"/>
<path d="M151.758 49.9394H144.97L144.97 56.7273H151.758V49.9394Z" fill="black"/>
<path d="M165.333 49.9394H158.545V56.7273H165.333V49.9394Z" fill="black"/>
<path d="M172.121 49.9394H165.333V56.7273H172.121V49.9394Z" fill="black"/>
<path d="M178.909 49.9394H172.121V56.7273H178.909V49.9394Z" fill="black"/>
<path d="M185.697 49.9394H178.909V56.7273H185.697V49.9394Z" fill="black"/>
<path d="M199.273 49.9394H192.485V56.7273H199.273V49.9394Z" fill="black"/>
<path d="M240 49.9394H233.212V56.7273H240V49.9394Z" fill="black"/>
<path d="M22.7879 56.7273H16V63.5152H22.7879V56.7273Z" fill="black"/>
<path d="M29.5758 56.7273H22.7879V63.5152H29.5758V56.7273Z" fill="black"/>
<path d="M36.3636 56.7273H29.5758V63.5152H36.3636V56.7273Z" fill="black"/>
<path d="M43.1515 56.7273H36.3636V63.5152H43.1515V56.7273Z" fill="black"/>
<path d="M49.9394 56.7273H43.1515V63.5152H49.9394V56.7273Z" fill="black"/>
<path d="M56.7273 56.7273H49.9394V63.5152H56.7273V56.7273Z" fill="black"/>
<path d="M63.5152 56.7273H56.7273V63.5152H63.5152V56.7273Z" fill="black"/>
<path d="M77.0909 56.7273H70.303V63.5152H77.0909V56.7273Z" fill="black"/>
<path d="M90.6667 56.7273H83.8788V63.5152H90.6667V56.7273Z" fill="black"/>
<path d="M104.242 56.7273H97.4546V63.5152H104.242V56.7273Z" fill="black"/>
<path d="M117.818 56.7273H111.03V63.5152H117.818V56.7273Z" fill="black"/>
<path d="M131.394 56.7273H124.606V63.5152H131.394V56.7273Z" fill="black"/>
<path d="M144.97 56.7273H138.182V63.5152H144.97V56.7273Z" fill="black"/>
<path d="M158.545 56.7273H151.758V63.5152H158.545V56.7273Z" fill="black"/>
<path d="M172.121 56.7273H165.333V63.5152H172.121V56.7273Z" fill="black"/>
<path d="M185.697 56.7273H178.909V63.5152H185.697V56.7273Z" fill="black"/>
<path d="M199.273 56.7273H192.485V63.5152H199.273V56.7273Z" fill="black"/>
<path d="M206.061 56.7273H199.273V63.5152H206.061V56.7273Z" fill="black"/>
<path d="M212.848 56.7273H206.061V63.5152H212.848V56.7273Z" fill="black"/>
<path d="M219.636 56.7273H212.848V63.5152H219.636V56.7273Z" fill="black"/>
<path d="M226.424 56.7273H219.636V63.5152H226.424V56.7273Z" fill="black"/>
<path d="M233.212 56.7273H226.424V63.5152H233.212V56.7273Z" fill="black"/>
<path d="M240 56.7273H233.212V63.5152H240V56.7273Z" fill="black"/>
<path d="M97.4546 63.5152H90.6667V70.303H97.4546V63.5152Z" fill="black"/>
<path d="M117.818 63.5152H111.03V70.303H117.818V63.5152Z" fill="black"/>
<path d="M131.394 63.5152H124.606V70.303H131.394V63.5152Z" fill="black"/>
<path d="M144.97 63.5152H138.182V70.303H144.97V63.5152Z" fill="black"/>
<path d="M165.333 63.5152H158.545V70.303H165.333V63.5152Z" fill="black"/>
<path d="M178.909 63.5152H172.121V70.303H178.909V63.5152Z" fill="black"/>
<path d="M185.697 63.5152H178.909V70.303H185.697V63.5152Z" fill="black"/>
<path d="M56.7273 70.303H49.9394V77.0909H56.7273V70.303Z" fill="black"/>
<path d="M63.5152 70.303H56.7273V77.0909H63.5152V70.303Z" fill="black"/>
<path d="M77.0909 70.303H70.303V77.0909H77.0909V70.303Z" fill="black"/>
<path d="M104.242 70.303H97.4546V77.0909H104.242V70.303Z" fill="black"/>
<path d="M111.03 70.303H104.242V77.0909H111.03V70.303Z" fill="black"/>
<path d="M131.394 70.303H124.606V77.0909H131.394V70.303Z" fill="black"/>
<path d="M144.97 70.303H138.182V77.0909H144.97V70.303Z" fill="black"/>
<path d="M151.758 70.303H144.97V77.0909H151.758V70.303Z" fill="black"/>
<path d="M158.545 70.303H151.758V77.0909H158.545V70.303Z" fill="black"/>
<path d="M185.697 70.303H178.909V77.0909H185.697V70.303Z" fill="black"/>
<path d="M192.485 70.303H185.697V77.0909H192.485V70.303Z" fill="black"/>
<path d="M206.061 70.303H199.273V77.0909H206.061V70.303Z" fill="black"/>
<path d="M219.636 70.303H212.848V77.0909H219.636V70.303Z" fill="black"/>
<path d="M240 70.303H233.212V77.0909H240V70.303Z" fill="black"/>
<path d="M29.5758 77.0909H22.7879V83.8788H29.5758V77.0909Z" fill="black"/>
<path d="M36.3636 77.0909H29.5758V83.8788H36.3636V77.0909Z" fill="black"/>
<path d="M70.303 77.0909H63.5152V83.8788H70.303V77.0909Z" fill="black"/>
<path d="M77.0909 77.0909H70.303V83.8788H77.0909V77.0909Z" fill="black"/>
<path d="M97.4546 77.0909H90.6667V83.8788H97.4546V77.0909Z" fill="black"/>
<path d="M111.03 77.0909H104.242V83.8788H111.03V77.0909Z" fill="black"/>
<path d="M117.818 77.0909H111.03V83.8788H117.818V77.0909Z" fill="black"/>
<path d="M124.606 77.0909H117.818V83.8788H124.606V77.0909Z" fill="black"/>
<path d="M151.758 77.0909H144.97L144.97 83.8788H151.758V77.0909Z" fill="black"/>
<path d="M172.121 77.0909H165.333V83.8788H172.121V77.0909Z" fill="black"/>
<path d="M192.485 77.0909H185.697V83.8788H192.485V77.0909Z" fill="black"/>
<path d="M199.273 77.0909H192.485V83.8788H199.273V77.0909Z" fill="black"/>
<path d="M219.636 77.0909H212.848V83.8788H219.636V77.0909Z" fill="black"/>
<path d="M226.424 77.0909H219.636V83.8788H226.424V77.0909Z" fill="black"/>
<path d="M56.7273 83.8788H49.9394V90.6667H56.7273V83.8788Z" fill="black"/>
<path d="M63.5152 83.8788H56.7273V90.6667H63.5152V83.8788Z" fill="black"/>
<path d="M77.0909 83.8788H70.303V90.6667H77.0909V83.8788Z" fill="black"/>
<path d="M83.8788 83.8788H77.0909V90.6667H83.8788V83.8788Z" fill="black"/>
<path d="M97.4546 83.8788H90.6667V90.6667H97.4546V83.8788Z" fill="black"/>
<path d="M104.242 83.8788H97.4546V90.6667H104.242V83.8788Z" fill="black"/>
<path d="M117.818 83.8788H111.03V90.6667H117.818V83.8788Z" fill="black"/>
<path d="M124.606 83.8788H117.818V90.6667H124.606V83.8788Z" fill="black"/>
<path d="M131.394 83.8788H124.606V90.6667H131.394V83.8788Z" fill="black"/>
<path d="M158.545 83.8788H151.758V90.6667H158.545V83.8788Z" fill="black"/>
<path d="M178.909 83.8788H172.121V90.6667H178.909V83.8788Z" fill="black"/>
<path d="M185.697 83.8788H178.909V90.6667H185.697V83.8788Z" fill="black"/>
<path d="M199.273 83.8788H192.485V90.6667H199.273V83.8788Z" fill="black"/>
<path d="M212.848 83.8788H206.061V90.6667H212.848V83.8788Z" fill="black"/>
<path d="M219.636 83.8788H212.848V90.6667H219.636V83.8788Z" fill="black"/>
<path d="M226.424 83.8788H219.636V90.6667H226.424V83.8788Z" fill="black"/>
<path d="M29.5758 90.6667H22.7879V97.4546H29.5758V90.6667Z" fill="black"/>
<path d="M43.1515 90.6667H36.3636V97.4546H43.1515V90.6667Z" fill="black"/>
<path d="M56.7273 90.6667H49.9394V97.4546H56.7273V90.6667Z" fill="black"/>
<path d="M90.6667 90.6667H83.8788V97.4546H90.6667V90.6667Z" fill="black"/>
<path d="M104.242 90.6667H97.4546V97.4546H104.242V90.6667Z" fill="black"/>
<path d="M111.03 90.6667H104.242V97.4546H111.03V90.6667Z" fill="black"/>
<path d="M124.606 90.6667H117.818V97.4546H124.606V90.6667Z" fill="black"/>
<path d="M138.182 90.6667H131.394V97.4546H138.182V90.6667Z" fill="black"/>
<path d="M151.758 90.6667H144.97V97.4546H151.758V90.6667Z" fill="black"/>
<path d="M158.545 90.6667H151.758V97.4546H158.545V90.6667Z" fill="black"/>
<path d="M172.121 90.6667H165.333V97.4546H172.121V90.6667Z" fill="black"/>
<path d="M178.909 90.6667H172.121V97.4546H178.909V90.6667Z" fill="black"/>
<path d="M192.485 90.6667H185.697V97.4546H192.485V90.6667Z" fill="black"/>
<path d="M206.061 90.6667H199.273V97.4546H206.061V90.6667Z" fill="black"/>
<path d="M219.636 90.6667H212.848V97.4546H219.636V90.6667Z" fill="black"/>
<path d="M226.424 90.6667H219.636V97.4546H226.424V90.6667Z" fill="black"/>
<path d="M233.212 90.6667H226.424V97.4546H233.212V90.6667Z" fill="black"/>
<path d="M240 90.6667H233.212V97.4546H240V90.6667Z" fill="black"/>
<path d="M29.5758 97.4546H22.7879V104.242H29.5758V97.4546Z" fill="black"/>
<path d="M43.1515 97.4546H36.3636V104.242H43.1515V97.4546Z" fill="black"/>
<path d="M63.5152 97.4546H56.7273V104.242H63.5152V97.4546Z" fill="black"/>
<path d="M70.303 97.4546H63.5152V104.242H70.303V97.4546Z" fill="black"/>
<path d="M77.0909 97.4546H70.303V104.242H77.0909V97.4546Z" fill="black"/>
<path d="M111.03 97.4546H104.242V104.242H111.03V97.4546Z" fill="black"/>
<path d="M117.818 97.4546H111.03V104.242H117.818V97.4546Z" fill="black"/>
<path d="M138.182 97.4546H131.394V104.242H138.182V97.4546Z" fill="black"/>
<path d="M165.333 97.4546H158.545V104.242H165.333V97.4546Z" fill="black"/>
<path d="M172.121 97.4546H165.333V104.242H172.121V97.4546Z" fill="black"/>
<path d="M178.909 97.4546H172.121V104.242H178.909V97.4546Z" fill="black"/>
<path d="M185.697 97.4546H178.909V104.242H185.697V97.4546Z" fill="black"/>
<path d="M192.485 97.4546H185.697V104.242H192.485V97.4546Z" fill="black"/>
<path d="M226.424 97.4546H219.636V104.242H226.424V97.4546Z" fill="black"/>
<path d="M22.7879 104.242H16V111.03H22.7879V104.242Z" fill="black"/>
<path d="M29.5758 104.242H22.7879V111.03H29.5758V104.242Z" fill="black"/>
<path d="M36.3636 104.242H29.5758V111.03H36.3636V104.242Z" fill="black"/>
<path d="M43.1515 104.242H36.3636V111.03H43.1515V104.242Z" fill="black"/>
<path d="M49.9394 104.242H43.1515V111.03H49.9394V104.242Z" fill="black"/>
<path d="M77.0909 104.242H70.303V111.03H77.0909V104.242Z" fill="black"/>
<path d="M83.8788 104.242H77.0909V111.03H83.8788V104.242Z" fill="black"/>
<path d="M90.6667 104.242H83.8788V111.03H90.6667V104.242Z" fill="black"/>
<path d="M97.4546 104.242H90.6667V111.03H97.4546V104.242Z" fill="black"/>
<path d="M111.03 104.242H104.242V111.03H111.03V104.242Z" fill="black"/>
<path d="M138.182 104.242H131.394V111.03H138.182V104.242Z" fill="black"/>
<path d="M151.758 104.242H144.97V111.03H151.758V104.242Z" fill="black"/>
<path d="M158.545 104.242H151.758V111.03H158.545V104.242Z" fill="black"/>
<path d="M192.485 104.242H185.697V111.03H192.485V104.242Z" fill="black"/>
<path d="M219.636 104.242H212.848V111.03H219.636V104.242Z" fill="black"/>
<path d="M233.212 104.242H226.424V111.03H233.212V104.242Z" fill="black"/>
<path d="M29.5758 111.03H22.7879V117.818H29.5758V111.03Z" fill="black"/>
<path d="M43.1515 111.03H36.3636V117.818H43.1515V111.03Z" fill="black"/>
<path d="M49.9394 111.03H43.1515V117.818H49.9394V111.03Z" fill="black"/>
<path d="M56.7273 111.03H49.9394V117.818H56.7273V111.03Z" fill="black"/>
<path d="M63.5152 111.03H56.7273V117.818H63.5152V111.03Z" fill="black"/>
<path d="M70.303 111.03H63.5152V117.818H70.303V111.03Z" fill="black"/>
<path d="M77.0909 111.03H70.303V117.818H77.0909V111.03Z" fill="black"/>
<path d="M90.6667 111.03H83.8788V117.818H90.6667V111.03Z" fill="black"/>
<path d="M104.242 111.03H97.4546V117.818H104.242V111.03Z" fill="black"/>
<path d="M111.03 111.03H104.242V117.818H111.03V111.03Z" fill="black"/>
<path d="M124.606 111.03H117.818V117.818H124.606V111.03Z" fill="black"/>
<path d="M131.394 111.03H124.606V117.818H131.394V111.03Z" fill="black"/>
<path d="M151.758 111.03H144.97V117.818H151.758V111.03Z" fill="black"/>
<path d="M172.121 111.03H165.333V117.818H172.121V111.03Z" fill="black"/>
<path d="M192.485 111.03H185.697V117.818H192.485V111.03Z" fill="black"/>
<path d="M212.848 111.03H206.061V117.818H212.848V111.03Z" fill="black"/>
<path d="M219.636 111.03H212.848V117.818H219.636V111.03Z" fill="black"/>
<path d="M226.424 111.03H219.636V117.818H226.424V111.03Z" fill="black"/>
<path d="M22.7879 117.818H16V124.606H22.7879V117.818Z" fill="black"/>
<path d="M29.5758 117.818H22.7879V124.606H29.5758V117.818Z" fill="black"/>
<path d="M36.3636 117.818H29.5758V124.606H36.3636V117.818Z" fill="black"/>
<path d="M56.7273 117.818H49.9394V124.606H56.7273V117.818Z" fill="black"/>
<path d="M70.303 117.818H63.5152V124.606H70.303V117.818Z" fill="black"/>
<path d="M97.4546 117.818H90.6667V124.606H97.4546V117.818Z" fill="black"/>
<path d="M104.242 117.818H97.4546V124.606H104.242V117.818Z" fill="black"/>
<path d="M111.03 117.818H104.242V124.606H111.03V117.818Z" fill="black"/>
<path d="M117.818 117.818H111.03V124.606H117.818V117.818Z" fill="black"/>
<path d="M131.394 117.818H124.606V124.606H131.394V117.818Z" fill="black"/>
<path d="M138.182 117.818H131.394V124.606H138.182V117.818Z" fill="black"/>
<path d="M151.758 117.818H144.97V124.606H151.758V117.818Z" fill="black"/>
<path d="M165.333 117.818H158.545V124.606H165.333V117.818Z" fill="black"/>
<path d="M178.909 117.818H172.121V124.606H178.909V117.818Z" fill="black"/>
<path d="M192.485 117.818H185.697V124.606H192.485V117.818Z" fill="black"/>
<path d="M206.061 117.818H199.273V124.606H206.061V117.818Z" fill="black"/>
<path d="M219.636 117.818H212.848V124.606H219.636V117.818Z" fill="black"/>
<path d="M226.424 117.818H219.636V124.606H226.424V117.818Z" fill="black"/>
<path d="M240 117.818H233.212V124.606H240V117.818Z" fill="black"/>
<path d="M43.1515 124.606H36.3636V131.394H43.1515V124.606Z" fill="black"/>
<path d="M56.7273 124.606H49.9394V131.394H56.7273V124.606Z" fill="black"/>
<path d="M63.5152 124.606H56.7273V131.394H63.5152V124.606Z" fill="black"/>
<path d="M70.303 124.606H63.5152V131.394H70.303V124.606Z" fill="black"/>
<path d="M90.6667 124.606H83.8788V131.394H90.6667V124.606Z" fill="black"/>
<path d="M97.4546 124.606H90.6667V131.394H97.4546V124.606Z" fill="black"/>
<path d="M104.242 124.606H97.4546V131.394H104.242V124.606Z" fill="black"/>
<path d="M117.818 124.606H111.03V131.394H117.818V124.606Z" fill="black"/>
<path d="M124.606 124.606H117.818V131.394H124.606V124.606Z" fill="black"/>
<path d="M138.182 124.606H131.394V131.394H138.182V124.606Z" fill="black"/>
<path d="M172.121 124.606H165.333V131.394H172.121V124.606Z" fill="black"/>
<path d="M185.697 124.606H178.909V131.394H185.697V124.606Z" fill="black"/>
<path d="M199.273 124.606H192.485V131.394H199.273V124.606Z" fill="black"/>
<path d="M206.061 124.606H199.273V131.394H206.061V124.606Z" fill="black"/>
<path d="M219.636 124.606H212.848V131.394H219.636V124.606Z" fill="black"/>
<path d="M226.424 124.606H219.636V131.394H226.424V124.606Z" fill="black"/>
<path d="M240 124.606H233.212V131.394H240V124.606Z" fill="black"/>
<path d="M22.7879 131.394H16V138.182H22.7879V131.394Z" fill="black"/>
<path d="M43.1515 131.394H36.3636V138.182H43.1515V131.394Z" fill="black"/>
<path d="M56.7273 131.394H49.9394V138.182H56.7273V131.394Z" fill="black"/>
<path d="M70.303 131.394H63.5152V138.182H70.303V131.394Z" fill="black"/>
<path d="M83.8788 131.394H77.0909V138.182H83.8788V131.394Z" fill="black"/>
<path d="M111.03 131.394H104.242V138.182H111.03V131.394Z" fill="black"/>
<path d="M124.606 131.394H117.818V138.182H124.606V131.394Z" fill="black"/>
<path d="M138.182 131.394H131.394V138.182H138.182V131.394Z" fill="black"/>
<path d="M144.97 131.394H138.182V138.182H144.97V131.394Z" fill="black"/>
<path d="M158.545 131.394H151.758V138.182H158.545V131.394Z" fill="black"/>
<path d="M185.697 131.394H178.909V138.182H185.697V131.394Z" fill="black"/>
<path d="M192.485 131.394H185.697V138.182H192.485V131.394Z" fill="black"/>
<path d="M199.273 131.394H192.485V138.182H199.273V131.394Z" fill="black"/>
<path d="M206.061 131.394H199.273V138.182H206.061V131.394Z" fill="black"/>
<path d="M226.424 131.394H219.636V138.182H226.424V131.394Z" fill="black"/>
<path d="M233.212 131.394H226.424V138.182H233.212V131.394Z" fill="black"/>
<path d="M29.5758 138.182H22.7879V144.97H29.5758V138.182Z" fill="black"/>
<path d="M36.3636 138.182H29.5758V144.97H36.3636V138.182Z" fill="black"/>
<path d="M43.1515 138.182H36.3636V144.97H43.1515V138.182Z" fill="black"/>
<path d="M49.9394 138.182H43.1515V144.97H49.9394V138.182Z" fill="black"/>
<path d="M63.5152 138.182H56.7273V144.97H63.5152V138.182Z" fill="black"/>
<path d="M70.303 138.182H63.5152V144.97H70.303V138.182Z" fill="black"/>
<path d="M90.6667 138.182H83.8788V144.97H90.6667V138.182Z" fill="black"/>
<path d="M97.4546 138.182H90.6667V144.97H97.4546V138.182Z" fill="black"/>
<path d="M104.242 138.182H97.4546V144.97H104.242V138.182Z" fill="black"/>
<path d="M111.03 138.182H104.242V144.97H111.03V138.182Z" fill="black"/>
<path d="M117.818 138.182H111.03V144.97H117.818V138.182Z" fill="black"/>
<path d="M192.485 138.182H185.697V144.97H192.485V138.182Z" fill="black"/>
<path d="M199.273 138.182H192.485V144.97H199.273V138.182Z" fill="black"/>
<path d="M206.061 138.182H199.273V144.97H206.061V138.182Z" fill="black"/>
<path d="M212.848 138.182H206.061V144.97H212.848V138.182Z" fill="black"/>
<path d="M219.636 138.182H212.848V144.97H219.636V138.182Z" fill="black"/>
<path d="M49.9394 144.97H43.1515V151.758H49.9394V144.97Z" fill="black"/>
<path d="M56.7273 144.97H49.9394V151.758H56.7273V144.97Z" fill="black"/>
<path d="M90.6667 144.97H83.8788V151.758H90.6667V144.97Z" fill="black"/>
<path d="M97.4546 144.97H90.6667V151.758H97.4546V144.97Z" fill="black"/>
<path d="M117.818 144.97H111.03V151.758H117.818V144.97Z" fill="black"/>
<path d="M158.545 144.97H151.758V151.758H158.545V144.97Z" fill="black"/>
<path d="M165.333 144.97H158.545V151.758H165.333V144.97Z" fill="black"/>
<path d="M172.121 144.97H165.333V151.758H172.121V144.97Z" fill="black"/>
<path d="M178.909 144.97H172.121V151.758H178.909V144.97Z" fill="black"/>
<path d="M192.485 144.97H185.697V151.758H192.485V144.97Z" fill="black"/>
<path d="M212.848 144.97H206.061V151.758H212.848V144.97Z" fill="black"/>
<path d="M219.636 144.97H212.848V151.758H219.636V144.97Z" fill="black"/>
<path d="M226.424 144.97L219.636 144.97V151.758H226.424V144.97Z" fill="black"/>
<path d="M233.212 144.97H226.424V151.758H233.212V144.97Z" fill="black"/>
<path d="M240 144.97H233.212V151.758H240V144.97Z" fill="black"/>
<path d="M29.5758 151.758H22.7879V158.545H29.5758V151.758Z" fill="black"/>
<path d="M43.1515 151.758H36.3636V158.545H43.1515V151.758Z" fill="black"/>
<path d="M49.9394 151.758H43.1515V158.545H49.9394V151.758Z" fill="black"/>
<path d="M63.5152 151.758H56.7273V158.545H63.5152V151.758Z" fill="black"/>
<path d="M77.0909 151.758H70.303V158.545H77.0909V151.758Z" fill="black"/>
<path d="M83.8788 151.758H77.0909V158.545H83.8788V151.758Z" fill="black"/>
<path d="M90.6667 151.758H83.8788V158.545H90.6667V151.758Z" fill="black"/>
<path d="M104.242 151.758H97.4546V158.545H104.242V151.758Z" fill="black"/>
<path d="M111.03 151.758H104.242V158.545H111.03V151.758Z" fill="black"/>
<path d="M124.606 151.758H117.818V158.545H124.606V151.758Z" fill="black"/>
<path d="M138.182 151.758H131.394V158.545H138.182V151.758Z" fill="black"/>
<path d="M144.97 151.758H138.182V158.545H144.97V151.758Z" fill="black"/>
<path d="M151.758 151.758H144.97V158.545H151.758V151.758Z" fill="black"/>
<path d="M158.545 151.758H151.758V158.545H158.545V151.758Z" fill="black"/>
<path d="M178.909 151.758H172.121V158.545H178.909V151.758Z" fill="black"/>
<path d="M185.697 151.758H178.909V158.545H185.697V151.758Z" fill="black"/>
<path d="M192.485 151.758H185.697V158.545H192.485V151.758Z" fill="black"/>
<path d="M199.273 151.758H192.485V158.545H199.273V151.758Z" fill="black"/>
<path d="M212.848 151.758H206.061V158.545H212.848V151.758Z" fill="black"/>
<path d="M226.424 151.758H219.636V158.545H226.424V151.758Z" fill="black"/>
<path d="M233.212 151.758H226.424V158.545H233.212V151.758Z" fill="black"/>
<path d="M22.7879 158.545H16V165.333H22.7879V158.545Z" fill="black"/>
<path d="M29.5758 158.545H22.7879V165.333H29.5758V158.545Z" fill="black"/>
<path d="M49.9394 158.545H43.1515V165.333H49.9394V158.545Z" fill="black"/>
<path d="M70.303 158.545H63.5152V165.333H70.303V158.545Z" fill="black"/>
<path d="M77.0909 158.545H70.303V165.333H77.0909V158.545Z" fill="black"/>
<path d="M83.8788 158.545H77.0909V165.333H83.8788V158.545Z" fill="black"/>
<path d="M97.4546 158.545H90.6667V165.333H97.4546V158.545Z" fill="black"/>
<path d="M111.03 158.545H104.242V165.333H111.03V158.545Z" fill="black"/>
<path d="M117.818 158.545H111.03V165.333H117.818V158.545Z" fill="black"/>
<path d="M124.606 158.545H117.818V165.333H124.606V158.545Z" fill="black"/>
<path d="M131.394 158.545H124.606V165.333H131.394V158.545Z" fill="black"/>
<path d="M138.182 158.545H131.394V165.333H138.182V158.545Z" fill="black"/>
<path d="M151.758 158.545H144.97L144.97 165.333H151.758V158.545Z" fill="black"/>
<path d="M165.333 158.545H158.545V165.333H165.333V158.545Z" fill="black"/>
<path d="M178.909 158.545H172.121V165.333H178.909V158.545Z" fill="black"/>
<path d="M185.697 158.545H178.909V165.333H185.697V158.545Z" fill="black"/>
<path d="M192.485 158.545H185.697V165.333H192.485V158.545Z" fill="black"/>
<path d="M199.273 158.545H192.485V165.333H199.273V158.545Z" fill="black"/>
<path d="M206.061 158.545H199.273V165.333H206.061V158.545Z" fill="black"/>
<path d="M226.424 158.545H219.636V165.333H226.424V158.545Z" fill="black"/>
<path d="M233.212 158.545H226.424V165.333H233.212V158.545Z" fill="black"/>
<path d="M240 158.545H233.212V165.333H240V158.545Z" fill="black"/>
<path d="M22.7879 165.333H16V172.121H22.7879V165.333Z" fill="black"/>
<path d="M29.5758 165.333H22.7879V172.121H29.5758V165.333Z" fill="black"/>
<path d="M36.3636 165.333H29.5758V172.121H36.3636V165.333Z" fill="black"/>
<path d="M49.9394 165.333H43.1515V172.121H49.9394V165.333Z" fill="black"/>
<path d="M56.7273 165.333H49.9394V172.121H56.7273V165.333Z" fill="black"/>
<path d="M63.5152 165.333H56.7273V172.121H63.5152V165.333Z" fill="black"/>
<path d="M70.303 165.333H63.5152V172.121H70.303V165.333Z" fill="black"/>
<path d="M97.4546 165.333H90.6667V172.121H97.4546V165.333Z" fill="black"/>
<path d="M117.818 165.333H111.03V172.121H117.818V165.333Z" fill="black"/>
<path d="M131.394 165.333H124.606V172.121H131.394V165.333Z" fill="black"/>
<path d="M144.97 165.333H138.182V172.121H144.97L144.97 165.333Z" fill="black"/>
<path d="M165.333 165.333H158.545V172.121H165.333V165.333Z" fill="black"/>
<path d="M172.121 165.333H165.333V172.121H172.121V165.333Z" fill="black"/>
<path d="M178.909 165.333H172.121V172.121H178.909V165.333Z" fill="black"/>
<path d="M185.697 165.333H178.909V172.121H185.697V165.333Z" fill="black"/>
<path d="M192.485 165.333H185.697V172.121H192.485V165.333Z" fill="black"/>
<path d="M199.273 165.333H192.485V172.121H199.273V165.333Z" fill="black"/>
<path d="M206.061 165.333H199.273V172.121H206.061V165.333Z" fill="black"/>
<path d="M22.7879 172.121H16V178.909H22.7879V172.121Z" fill="black"/>
<path d="M29.5758 172.121H22.7879V178.909H29.5758V172.121Z" fill="black"/>
<path d="M36.3636 172.121H29.5758V178.909H36.3636V172.121Z" fill="black"/>
<path d="M43.1515 172.121H36.3636V178.909H43.1515V172.121Z" fill="black"/>
<path d="M49.9394 172.121H43.1515V178.909H49.9394V172.121Z" fill="black"/>
<path d="M70.303 172.121H63.5152V178.909H70.303V172.121Z" fill="black"/>
<path d="M77.0909 172.121H70.303V178.909H77.0909V172.121Z" fill="black"/>
<path d="M117.818 172.121H111.03V178.909H117.818V172.121Z" fill="black"/>
<path d="M131.394 172.121H124.606V178.909H131.394V172.121Z" fill="black"/>
<path d="M138.182 172.121H131.394V178.909H138.182V172.121Z" fill="black"/>
<path d="M151.758 172.121H144.97L144.97 178.909H151.758V172.121Z" fill="black"/>
<path d="M158.545 172.121H151.758V178.909H158.545V172.121Z" fill="black"/>
<path d="M178.909 172.121H172.121V178.909H178.909V172.121Z" fill="black"/>
<path d="M219.636 172.121H212.848V178.909H219.636V172.121Z" fill="black"/>
<path d="M226.424 172.121H219.636V178.909H226.424V172.121Z" fill="black"/>
<path d="M22.7879 178.909H16V185.697H22.7879V178.909Z" fill="black"/>
<path d="M29.5758 178.909H22.7879V185.697H29.5758V178.909Z" fill="black"/>
<path d="M43.1515 178.909H36.3636V185.697H43.1515V178.909Z" fill="black"/>
<path d="M56.7273 178.909H49.9394V185.697H56.7273V178.909Z" fill="black"/>
<path d="M63.5152 178.909H56.7273V185.697H63.5152V178.909Z" fill="black"/>
<path d="M83.8788 178.909H77.0909V185.697H83.8788V178.909Z" fill="black"/>
<path d="M90.6667 178.909H83.8788V185.697H90.6667V178.909Z" fill="black"/>
<path d="M97.4546 178.909H90.6667V185.697H97.4546V178.909Z" fill="black"/>
<path d="M117.818 178.909H111.03V185.697H117.818V178.909Z" fill="black"/>
<path d="M138.182 178.909H131.394V185.697H138.182V178.909Z" fill="black"/>
<path d="M151.758 178.909H144.97V185.697H151.758V178.909Z" fill="black"/>
<path d="M158.545 178.909H151.758V185.697H158.545V178.909Z" fill="black"/>
<path d="M165.333 178.909H158.545V185.697H165.333V178.909Z" fill="black"/>
<path d="M185.697 178.909H178.909V185.697H185.697V178.909Z" fill="black"/>
<path d="M192.485 178.909H185.697V185.697H192.485V178.909Z" fill="black"/>
<path d="M199.273 178.909H192.485V185.697H199.273V178.909Z" fill="black"/>
<path d="M206.061 178.909H199.273V185.697H206.061V178.909Z" fill="black"/>
<path d="M212.848 178.909H206.061V185.697H212.848V178.909Z" fill="black"/>
<path d="M219.636 178.909H212.848V185.697H219.636V178.909Z" fill="black"/>
<path d="M240 178.909H233.212V185.697H240V178.909Z" fill="black"/>
<path d="M77.0909 185.697H70.303V192.485H77.0909V185.697Z" fill="black"/>
<path d="M83.8788 185.697H77.0909V192.485H83.8788V185.697Z" fill="black"/>
<path d="M111.03 185.697H104.242V192.485H111.03V185.697Z" fill="black"/>
<path d="M117.818 185.697H111.03V192.485H117.818V185.697Z" fill="black"/>
<path d="M151.758 185.697H144.97V192.485H151.758V185.697Z" fill="black"/>
<path d="M158.545 185.697H151.758V192.485H158.545V185.697Z" fill="black"/>
<path d="M165.333 185.697H158.545V192.485H165.333V185.697Z" fill="black"/>
<path d="M172.121 185.697H165.333V192.485H172.121V185.697Z" fill="black"/>
<path d="M185.697 185.697H178.909V192.485H185.697V185.697Z" fill="black"/>
<path d="M212.848 185.697H206.061V192.485H212.848V185.697Z" fill="black"/>
<path d="M240 185.697H233.212V192.485H240V185.697Z" fill="black"/>
<path d="M22.7879 192.485H16V199.273H22.7879V192.485Z" fill="black"/>
<path d="M29.5758 192.485H22.7879V199.273H29.5758V192.485Z" fill="black"/>
<path d="M36.3636 192.485H29.5758V199.273H36.3636V192.485Z" fill="black"/>
<path d="M43.1515 192.485H36.3636V199.273H43.1515V192.485Z" fill="black"/>
<path d="M49.9394 192.485H43.1515V199.273H49.9394V192.485Z" fill="black"/>
<path d="M56.7273 192.485H49.9394V199.273H56.7273V192.485Z" fill="black"/>
<path d="M63.5152 192.485H56.7273V199.273H63.5152V192.485Z" fill="black"/>
<path d="M83.8788 192.485H77.0909V199.273H83.8788V192.485Z" fill="black"/>
<path d="M90.6667 192.485H83.8788V199.273H90.6667V192.485Z" fill="black"/>
<path d="M97.4546 192.485H90.6667V199.273H97.4546V192.485Z" fill="black"/>
<path d="M104.242 192.485H97.4546V199.273H104.242V192.485Z" fill="black"/>
<path d="M111.03 192.485H104.242V199.273H111.03V192.485Z" fill="black"/>
<path d="M117.818 192.485H111.03V199.273H117.818V192.485Z" fill="black"/>
<path d="M124.606 192.485H117.818V199.273H124.606V192.485Z" fill="black"/>
<path d="M131.394 192.485H124.606V199.273H131.394V192.485Z" fill="black"/>
<path d="M144.97 192.485H138.182V199.273H144.97L144.97 192.485Z" fill="black"/>
<path d="M178.909 192.485H172.121V199.273H178.909V192.485Z" fill="black"/>
<path d="M185.697 192.485H178.909V199.273H185.697V192.485Z" fill="black"/>
<path d="M199.273 192.485H192.485V199.273H199.273V192.485Z" fill="black"/>
<path d="M212.848 192.485H206.061V199.273H212.848V192.485Z" fill="black"/>
<path d="M219.636 192.485H212.848V199.273H219.636V192.485Z" fill="black"/>
<path d="M233.212 192.485H226.424V199.273H233.212V192.485Z" fill="black"/>
<path d="M22.7879 199.273H16V206.061H22.7879V199.273Z" fill="black"/>
<path d="M63.5152 199.273H56.7273V206.061H63.5152V199.273Z" fill="black"/>
<path d="M77.0909 199.273H70.303V206.061H77.0909V199.273Z" fill="black"/>
<path d="M83.8788 199.273H77.0909V206.061H83.8788V199.273Z" fill="black"/>
<path d="M90.6667 199.273H83.8788V206.061H90.6667V199.273Z" fill="black"/>
<path d="M138.182 199.273H131.394V206.061H138.182V199.273Z" fill="black"/>
<path d="M151.758 199.273H144.97L144.97 206.061H151.758V199.273Z" fill="black"/>
<path d="M178.909 199.273H172.121V206.061H178.909V199.273Z" fill="black"/>
<path d="M185.697 199.273H178.909V206.061H185.697V199.273Z" fill="black"/>
<path d="M212.848 199.273H206.061V206.061H212.848V199.273Z" fill="black"/>
<path d="M22.7879 206.061H16V212.848H22.7879V206.061Z" fill="black"/>
<path d="M36.3636 206.061H29.5758V212.848H36.3636V206.061Z" fill="black"/>
<path d="M43.1515 206.061H36.3636V212.848H43.1515V206.061Z" fill="black"/>
<path d="M49.9394 206.061H43.1515V212.848H49.9394V206.061Z" fill="black"/>
<path d="M63.5152 206.061H56.7273V212.848H63.5152V206.061Z" fill="black"/>
<path d="M90.6667 206.061H83.8788V212.848H90.6667V206.061Z" fill="black"/>
<path d="M97.4546 206.061H90.6667V212.848H97.4546V206.061Z" fill="black"/>
<path d="M104.242 206.061H97.4546V212.848H104.242V206.061Z" fill="black"/>
<path d="M111.03 206.061H104.242V212.848H111.03V206.061Z" fill="black"/>
<path d="M117.818 206.061H111.03V212.848H117.818V206.061Z" fill="black"/>
<path d="M124.606 206.061H117.818V212.848H124.606V206.061Z" fill="black"/>
<path d="M131.394 206.061H124.606V212.848H131.394V206.061Z" fill="black"/>
<path d="M158.545 206.061H151.758V212.848H158.545V206.061Z" fill="black"/>
<path d="M178.909 206.061H172.121V212.848H178.909V206.061Z" fill="black"/>
<path d="M185.697 206.061H178.909V212.848H185.697V206.061Z" fill="black"/>
<path d="M192.485 206.061H185.697V212.848H192.485V206.061Z" fill="black"/>
<path d="M199.273 206.061H192.485V212.848H199.273V206.061Z" fill="black"/>
<path d="M206.061 206.061H199.273V212.848H206.061V206.061Z" fill="black"/>
<path d="M212.848 206.061H206.061V212.848H212.848V206.061Z" fill="black"/>
<path d="M219.636 206.061H212.848V212.848H219.636V206.061Z" fill="black"/>
<path d="M226.424 206.061H219.636V212.848H226.424V206.061Z" fill="black"/>
<path d="M240 206.061H233.212V212.848H240V206.061Z" fill="black"/>
<path d="M22.7879 212.848H16V219.636H22.7879V212.848Z" fill="black"/>
<path d="M36.3636 212.848H29.5758V219.636H36.3636V212.848Z" fill="black"/>
<path d="M43.1515 212.848H36.3636V219.636H43.1515V212.848Z" fill="black"/>
<path d="M49.9394 212.848H43.1515V219.636H49.9394V212.848Z" fill="black"/>
<path d="M63.5152 212.848H56.7273V219.636H63.5152V212.848Z" fill="black"/>
<path d="M97.4546 212.848H90.6667V219.636H97.4546V212.848Z" fill="black"/>
<path d="M104.242 212.848H97.4546V219.636H104.242V212.848Z" fill="black"/>
<path d="M111.03 212.848H104.242V219.636H111.03V212.848Z" fill="black"/>
<path d="M131.394 212.848H124.606V219.636H131.394V212.848Z" fill="black"/>
<path d="M138.182 212.848H131.394V219.636H138.182V212.848Z" fill="black"/>
<path d="M178.909 212.848H172.121V219.636H178.909V212.848Z" fill="black"/>
<path d="M192.485 212.848H185.697V219.636H192.485V212.848Z" fill="black"/>
<path d="M199.273 212.848H192.485V219.636H199.273V212.848Z" fill="black"/>
<path d="M212.848 212.848H206.061V219.636H212.848V212.848Z" fill="black"/>
<path d="M219.636 212.848H212.848V219.636H219.636V212.848Z" fill="black"/>
<path d="M226.424 212.848H219.636V219.636H226.424V212.848Z" fill="black"/>
<path d="M240 212.848H233.212V219.636H240V212.848Z" fill="black"/>
<path d="M22.7879 219.636H16V226.424H22.7879V219.636Z" fill="black"/>
<path d="M36.3636 219.636H29.5758V226.424H36.3636V219.636Z" fill="black"/>
<path d="M43.1515 219.636H36.3636V226.424H43.1515V219.636Z" fill="black"/>
<path d="M49.9394 219.636H43.1515V226.424H49.9394V219.636Z" fill="black"/>
<path d="M63.5152 219.636H56.7273V226.424H63.5152V219.636Z" fill="black"/>
<path d="M90.6667 219.636H83.8788V226.424H90.6667V219.636Z" fill="black"/>
<path d="M111.03 219.636H104.242V226.424H111.03V219.636Z" fill="black"/>
<path d="M144.97 219.636H138.182V226.424H144.97V219.636Z" fill="black"/>
<path d="M172.121 219.636H165.333V226.424H172.121V219.636Z" fill="black"/>
<path d="M185.697 219.636H178.909V226.424H185.697V219.636Z" fill="black"/>
<path d="M199.273 219.636H192.485V226.424H199.273V219.636Z" fill="black"/>
<path d="M22.7879 226.424H16V233.212H22.7879V226.424Z" fill="black"/>
<path d="M63.5152 226.424H56.7273V233.212H63.5152V226.424Z" fill="black"/>
<path d="M83.8788 226.424H77.0909V233.212H83.8788V226.424Z" fill="black"/>
<path d="M97.4546 226.424H90.6667V233.212H97.4546V226.424Z" fill="black"/>
<path d="M111.03 226.424H104.242V233.212H111.03V226.424Z" fill="black"/>
<path d="M117.818 226.424H111.03V233.212H117.818V226.424Z" fill="black"/>
<path d="M124.606 226.424H117.818V233.212H124.606V226.424Z" fill="black"/>
<path d="M131.394 226.424H124.606V233.212H131.394V226.424Z" fill="black"/>
<path d="M144.97 226.424H138.182V233.212H144.97V226.424Z" fill="black"/>
<path d="M151.758 226.424H144.97V233.212H151.758V226.424Z" fill="black"/>
<path d="M158.545 226.424H151.758V233.212H158.545V226.424Z" fill="black"/>
<path d="M165.333 226.424H158.545V233.212H165.333V226.424Z" fill="black"/>
<path d="M178.909 226.424H172.121V233.212H178.909V226.424Z" fill="black"/>
<path d="M192.485 226.424H185.697V233.212H192.485V226.424Z" fill="black"/>
<path d="M212.848 226.424H206.061V233.212H212.848V226.424Z" fill="black"/>
<path d="M240 226.424H233.212V233.212H240V226.424Z" fill="black"/>
<path d="M22.7879 233.212H16V240H22.7879V233.212Z" fill="black"/>
<path d="M29.5758 233.212H22.7879V240H29.5758V233.212Z" fill="black"/>
<path d="M36.3636 233.212H29.5758V240H36.3636V233.212Z" fill="black"/>
<path d="M43.1515 233.212H36.3636V240H43.1515V233.212Z" fill="black"/>
<path d="M49.9394 233.212H43.1515V240H49.9394V233.212Z" fill="black"/>
<path d="M56.7273 233.212H49.9394V240H56.7273V233.212Z" fill="black"/>
<path d="M63.5152 233.212H56.7273V240H63.5152V233.212Z" fill="black"/>
<path d="M90.6667 233.212H83.8788V240H90.6667V233.212Z" fill="black"/>
<path d="M111.03 233.212H104.242V240H111.03V233.212Z" fill="black"/>
<path d="M144.97 233.212H138.182V240H144.97V233.212Z" fill="black"/>
<path d="M158.545 233.212H151.758V240H158.545V233.212Z" fill="black"/>
<path d="M165.333 233.212H158.545V240H165.333V233.212Z" fill="black"/>
<path d="M172.121 233.212H165.333V240H172.121V233.212Z" fill="black"/>
<path d="M178.909 233.212H172.121V240H178.909V233.212Z" fill="black"/>
<path d="M185.697 233.212H178.909V240H185.697V233.212Z" fill="black"/>
<path d="M192.485 233.212H185.697V240H192.485V233.212Z" fill="black"/>
<path d="M226.424 233.212H219.636V240H226.424V233.212Z" fill="black"/>
</g>
<defs>
<clipPath id="clip0_171_1659">
<rect width="256" height="256" fill="white"/>
</clipPath>
</defs>
</svg>
