<svg width="19" height="19" viewBox="0 0 19 19" fill="none" xmlns="http://www.w3.org/2000/svg">
<path fill-rule="evenodd" clip-rule="evenodd" d="M0.791656 3.16671C0.791656 2.29226 1.50054 1.58337 2.37499 1.58337H16.625C17.4994 1.58337 18.2083 2.29226 18.2083 3.16671V5.54171C18.2083 6.41616 17.4994 7.12504 16.625 7.12504V15.0417C16.625 15.6716 16.3748 16.2757 15.9294 16.7211C15.484 17.1665 14.8799 17.4167 14.25 17.4167H4.74999C4.1201 17.4167 3.51601 17.1665 3.07061 16.7211C2.62521 16.2757 2.37499 15.6716 2.37499 15.0417V7.12504C1.50054 7.12504 0.791656 6.41616 0.791656 5.54171V3.16671ZM3.95832 7.12504V15.0417C3.95832 15.2517 4.04173 15.453 4.1902 15.6015C4.33866 15.75 4.54003 15.8334 4.74999 15.8334H14.25C14.46 15.8334 14.6613 15.75 14.8098 15.6015C14.9582 15.453 15.0417 15.2517 15.0417 15.0417V7.12504H3.95832ZM2.37499 5.54171V3.16671H16.625V5.54171H2.37499ZM7.12499 9.50004C7.12499 9.06281 7.47943 8.70837 7.91666 8.70837H11.0833C11.5205 8.70837 11.875 9.06281 11.875 9.50004C11.875 9.93727 11.5205 10.2917 11.0833 10.2917H7.91666C7.47943 10.2917 7.12499 9.93727 7.12499 9.50004Z" fill="#09090B"/>
</svg>
