<svg width="19" height="19" viewBox="0 0 19 19" fill="none" xmlns="http://www.w3.org/2000/svg">
<path fill-rule="evenodd" clip-rule="evenodd" d="M2.37501 1.58337C2.81224 1.58337 3.16668 1.93782 3.16668 2.37504V15.8334H16.625C17.0622 15.8334 17.4167 16.1878 17.4167 16.625C17.4167 17.0623 17.0622 17.4167 16.625 17.4167H2.37501C1.93778 17.4167 1.58334 17.0623 1.58334 16.625V2.37504C1.58334 1.93782 1.93778 1.58337 2.37501 1.58337ZM14.25 3.16671C14.6872 3.16671 15.0417 3.52115 15.0417 3.95837V13.4584C15.0417 13.8956 14.6872 14.25 14.25 14.25C13.8128 14.25 13.4583 13.8956 13.4583 13.4584V3.95837C13.4583 3.52115 13.8128 3.16671 14.25 3.16671ZM10.2917 6.33337C10.7289 6.33337 11.0833 6.68782 11.0833 7.12504V13.4584C11.0833 13.8956 10.7289 14.25 10.2917 14.25C9.85445 14.25 9.50001 13.8956 9.50001 13.4584V7.12504C9.50001 6.68782 9.85445 6.33337 10.2917 6.33337ZM6.33334 10.2917C6.77057 10.2917 7.12501 10.6461 7.12501 11.0834V13.4584C7.12501 13.8956 6.77057 14.25 6.33334 14.25C5.89612 14.25 5.54168 13.8956 5.54168 13.4584V11.0834C5.54168 10.6461 5.89612 10.2917 6.33334 10.2917Z" fill="#09090B"/>
</svg>
