<svg width="19" height="19" viewBox="0 0 19 19" fill="none" xmlns="http://www.w3.org/2000/svg">
<path fill-rule="evenodd" clip-rule="evenodd" d="M6.33334 0.791626C6.77057 0.791626 7.12501 1.14607 7.12501 1.58329V2.37496H11.875V1.58329C11.875 1.14607 12.2295 0.791626 12.6667 0.791626C13.1039 0.791626 13.4583 1.14607 13.4583 1.58329V2.37496H15.0417C16.3534 2.37496 17.4167 3.43828 17.4167 4.74996V15.8333C17.4167 17.145 16.3534 18.2083 15.0417 18.2083H3.95834C2.64667 18.2083 1.58334 17.145 1.58334 15.8333V4.74996C1.58334 3.43828 2.64667 2.37496 3.95834 2.37496H5.54168V1.58329C5.54168 1.14607 5.89612 0.791626 6.33334 0.791626ZM5.54168 3.95829H3.95834C3.52112 3.95829 3.16668 4.31273 3.16668 4.74996V7.12496H15.8333V4.74996C15.8333 4.31273 15.4789 3.95829 15.0417 3.95829H13.4583V4.74996C13.4583 5.18718 13.1039 5.54163 12.6667 5.54163C12.2295 5.54163 11.875 5.18718 11.875 4.74996V3.95829H7.12501V4.74996C7.12501 5.18718 6.77057 5.54163 6.33334 5.54163C5.89612 5.54163 5.54168 5.18718 5.54168 4.74996V3.95829ZM15.8333 8.70829H3.16668V15.8333C3.16668 16.2705 3.52112 16.625 3.95834 16.625H15.0417C15.4789 16.625 15.8333 16.2705 15.8333 15.8333V8.70829ZM5.54168 11.0833C5.54168 10.6461 5.89612 10.2916 6.33334 10.2916H6.34126C6.77849 10.2916 7.13293 10.6461 7.13293 11.0833C7.13293 11.5205 6.77849 11.875 6.34126 11.875H6.33334C5.89612 11.875 5.54168 11.5205 5.54168 11.0833ZM8.70834 11.0833C8.70834 10.6461 9.06278 10.2916 9.50001 10.2916H9.50793C9.94515 10.2916 10.2996 10.6461 10.2996 11.0833C10.2996 11.5205 9.94515 11.875 9.50793 11.875H9.50001C9.06278 11.875 8.70834 11.5205 8.70834 11.0833ZM11.875 11.0833C11.875 10.6461 12.2295 10.2916 12.6667 10.2916H12.6746C13.1118 10.2916 13.4663 10.6461 13.4663 11.0833C13.4663 11.5205 13.1118 11.875 12.6746 11.875H12.6667C12.2295 11.875 11.875 11.5205 11.875 11.0833ZM5.54168 14.25C5.54168 13.8127 5.89612 13.4583 6.33334 13.4583H6.34126C6.77849 13.4583 7.13293 13.8127 7.13293 14.25C7.13293 14.6872 6.77849 15.0416 6.34126 15.0416H6.33334C5.89612 15.0416 5.54168 14.6872 5.54168 14.25ZM8.70834 14.25C8.70834 13.8127 9.06278 13.4583 9.50001 13.4583H9.50793C9.94515 13.4583 10.2996 13.8127 10.2996 14.25C10.2996 14.6872 9.94515 15.0416 9.50793 15.0416H9.50001C9.06278 15.0416 8.70834 14.6872 8.70834 14.25ZM11.875 14.25C11.875 13.8127 12.2295 13.4583 12.6667 13.4583H12.6746C13.1118 13.4583 13.4663 13.8127 13.4663 14.25C13.4663 14.6872 13.1118 15.0416 12.6746 15.0416H12.6667C12.2295 15.0416 11.875 14.6872 11.875 14.25Z" fill="#09090B"/>
</svg>
