<svg width="19" height="19" viewBox="0 0 19 19" fill="none" xmlns="http://www.w3.org/2000/svg">
<path fill-rule="evenodd" clip-rule="evenodd" d="M7.68479 2.60687C7.99396 2.91604 7.99396 3.41729 7.68479 3.72646L5.07792 6.33333H12.6667C13.7165 6.33333 14.7233 6.75037 15.4656 7.4927C16.208 8.23503 16.625 9.24185 16.625 10.2917V15.8333C16.625 16.2706 16.2706 16.625 15.8333 16.625C15.3961 16.625 15.0417 16.2706 15.0417 15.8333V10.2917C15.0417 9.66178 14.7914 9.05769 14.346 8.61229C13.9006 8.16689 13.2966 7.91667 12.6667 7.91667H5.07792L7.68479 10.5235C7.99396 10.8327 7.99396 11.334 7.68479 11.6431C7.37563 11.9523 6.87437 11.9523 6.56521 11.6431L2.60687 7.68479C2.29771 7.37563 2.29771 6.87437 2.60687 6.56521L6.56521 2.60687C6.87437 2.29771 7.37563 2.29771 7.68479 2.60687Z" fill="#09090B"/>
</svg>
