<svg width="19" height="19" viewBox="0 0 19 19" fill="none" xmlns="http://www.w3.org/2000/svg">
<path fill-rule="evenodd" clip-rule="evenodd" d="M4.19022 4.19025C4.49938 3.88108 5.00064 3.88108 5.3098 4.19025L9.50001 8.38046L13.6902 4.19025C13.9994 3.88108 14.5006 3.88108 14.8098 4.19025C15.119 4.49941 15.119 5.00067 14.8098 5.30983L10.6196 9.50004L14.8098 13.6902C15.119 13.9994 15.119 14.5007 14.8098 14.8098C14.5006 15.119 13.9994 15.119 13.6902 14.8098L9.50001 10.6196L5.3098 14.8098C5.00064 15.119 4.49938 15.119 4.19022 14.8098C3.88105 14.5007 3.88105 13.9994 4.19022 13.6902L8.38042 9.50004L4.19022 5.30983C3.88105 5.00067 3.88105 4.49941 4.19022 4.19025Z" fill="#09090B"/>
</svg>
