<svg width="19" height="19" viewBox="0 0 19 19" fill="none" xmlns="http://www.w3.org/2000/svg">
<path fill-rule="evenodd" clip-rule="evenodd" d="M2.46348 9.49996C2.52841 9.62445 2.61414 9.78102 2.72123 9.96092C3.00939 10.445 3.4472 11.0898 4.04361 11.7321C5.2369 13.0172 7.02055 14.25 9.49994 14.25C11.9793 14.25 13.763 13.0172 14.9563 11.7321C15.5527 11.0898 15.9905 10.445 16.2786 9.96092C16.3857 9.78102 16.4715 9.62445 16.5364 9.49996C16.4715 9.37546 16.3857 9.2189 16.2786 9.039C15.9905 8.55488 15.5527 7.9101 14.9563 7.26782C13.763 5.98274 11.9793 4.74996 9.49994 4.74996C7.02055 4.74996 5.2369 5.98274 4.04361 7.26782C3.4472 7.9101 3.00939 8.55488 2.72123 9.039C2.61414 9.2189 2.52841 9.37546 2.46348 9.49996ZM17.4166 9.49996C18.1443 9.18811 18.1441 9.18778 18.144 9.18744L18.1428 9.18468L18.1404 9.17923L18.133 9.16238C18.1268 9.14855 18.1183 9.12956 18.1073 9.10575C18.0853 9.05816 18.0535 8.99125 18.0118 8.9078C17.9284 8.741 17.8048 8.50737 17.6392 8.22915C17.3089 7.6742 16.8066 6.93357 16.1165 6.19044C14.7369 4.70468 12.5622 3.16663 9.49994 3.16663C6.43766 3.16663 4.26298 4.70468 2.88335 6.19044C2.1933 6.93357 1.69101 7.6742 1.36068 8.22915C1.19507 8.50737 1.07146 8.741 0.988058 8.9078C0.94633 8.99125 0.91458 9.05816 0.892597 9.10575C0.881602 9.12956 0.873042 9.14855 0.866889 9.16238L0.85946 9.17923L0.857091 9.18468L0.856242 9.18665L0.855901 9.18744C0.855754 9.18778 0.855616 9.18811 1.58327 9.49996L0.855901 9.18744C0.770554 9.38658 0.770269 9.61267 0.855616 9.81181L1.58327 9.49996C0.855616 9.81181 0.855469 9.81147 0.855616 9.81181L0.856242 9.81327L0.857091 9.81524L0.85946 9.82069L0.866889 9.83754C0.873042 9.85137 0.881602 9.87036 0.892597 9.89417C0.91458 9.94176 0.94633 10.0087 0.988058 10.0921C1.07146 10.2589 1.19507 10.4925 1.36068 10.7708C1.69101 11.3257 2.1933 12.0664 2.88335 12.8095C4.26298 14.2952 6.43766 15.8333 9.49994 15.8333C12.5622 15.8333 14.7369 14.2952 16.1165 12.8095C16.8066 12.0664 17.3089 11.3257 17.6392 10.7708C17.8048 10.4925 17.9284 10.2589 18.0118 10.0921C18.0535 10.0087 18.0853 9.94176 18.1073 9.89417C18.1183 9.87036 18.1268 9.85137 18.133 9.83754L18.1404 9.82069L18.1428 9.81524L18.144 9.81248C18.1441 9.81213 18.1443 9.81181 17.4166 9.49996ZM17.4166 9.49996L18.144 9.81248C18.2293 9.61333 18.2293 9.38658 18.144 9.18744L17.4166 9.49996ZM9.49994 7.91663C8.62549 7.91663 7.9166 8.62551 7.9166 9.49996C7.9166 10.3744 8.62549 11.0833 9.49994 11.0833C10.3744 11.0833 11.0833 10.3744 11.0833 9.49996C11.0833 8.62551 10.3744 7.91663 9.49994 7.91663ZM6.33327 9.49996C6.33327 7.75106 7.75104 6.33329 9.49994 6.33329C11.2488 6.33329 12.6666 7.75106 12.6666 9.49996C12.6666 11.2489 11.2488 12.6666 9.49994 12.6666C7.75104 12.6666 6.33327 11.2489 6.33327 9.49996Z" fill="#660708"/>
</svg>
