<svg width="19" height="19" viewBox="0 0 19 19" fill="none" xmlns="http://www.w3.org/2000/svg">
<path fill-rule="evenodd" clip-rule="evenodd" d="M11.0833 2.37504C11.0833 1.93782 11.4378 1.58337 11.875 1.58337H15.0416C15.6715 1.58337 16.2756 1.8336 16.721 2.279C17.1664 2.72439 17.4166 3.32848 17.4166 3.95837V15.0417C17.4166 15.6716 17.1664 16.2757 16.721 16.7211C16.2756 17.1665 15.6715 17.4167 15.0416 17.4167H11.875C11.4378 17.4167 11.0833 17.0623 11.0833 16.625C11.0833 16.1878 11.4378 15.8334 11.875 15.8334H15.0416C15.2516 15.8334 15.453 15.75 15.6014 15.6015C15.7499 15.453 15.8333 15.2517 15.8333 15.0417V3.95837C15.8333 3.74841 15.7499 3.54705 15.6014 3.39858C15.453 3.25011 15.2516 3.16671 15.0416 3.16671H11.875C11.4378 3.16671 11.0833 2.81227 11.0833 2.37504ZM7.35685 4.98191C7.66602 4.67275 8.16727 4.67275 8.47644 4.98191L12.4348 8.94025C12.7439 9.24941 12.7439 9.75067 12.4348 10.0598L8.47644 14.0182C8.16727 14.3273 7.66602 14.3273 7.35685 14.0182C7.04769 13.709 7.04769 13.2077 7.35685 12.8986L9.96373 10.2917H2.37498C1.93775 10.2917 1.58331 9.93727 1.58331 9.50004C1.58331 9.06281 1.93775 8.70837 2.37498 8.70837H9.96373L7.35685 6.1015C7.04769 5.79234 7.04769 5.29108 7.35685 4.98191Z" fill="#09090B"/>
</svg>
