<svg width="19" height="19" viewBox="0 0 19 19" fill="none" xmlns="http://www.w3.org/2000/svg">
<path fill-rule="evenodd" clip-rule="evenodd" d="M8.70834 3.16671C5.64777 3.16671 3.16668 5.6478 3.16668 8.70837C3.16668 11.769 5.64777 14.25 8.70834 14.25C11.7689 14.25 14.25 11.769 14.25 8.70837C14.25 5.6478 11.7689 3.16671 8.70834 3.16671ZM1.58334 8.70837C1.58334 4.77335 4.77331 1.58337 8.70834 1.58337C12.6434 1.58337 15.8333 4.77335 15.8333 8.70837C15.8333 10.3906 15.2503 11.9367 14.2754 13.1556L17.185 16.0652C17.4941 16.3744 17.4941 16.8756 17.185 17.1848C16.8758 17.494 16.3745 17.494 16.0654 17.1848L13.1558 14.2752C11.9369 15.2503 10.3907 15.8334 8.70834 15.8334C4.77331 15.8334 1.58334 12.6434 1.58334 8.70837Z" fill="#660708"/>
</svg>
