<svg width="19" height="19" viewBox="0 0 19 19" fill="none" xmlns="http://www.w3.org/2000/svg">
<path fill-rule="evenodd" clip-rule="evenodd" d="M7.51777 2.47932C7.89738 2.69625 8.02927 3.17984 7.81235 3.55946L5.32251 7.91668H7.11544C7.12247 7.91659 7.12949 7.91659 7.13649 7.91668H11.8635C11.8705 7.91659 11.8775 7.91659 11.8845 7.91668H13.6775L11.1876 3.55946C10.9707 3.17984 11.1026 2.69625 11.4822 2.47932C11.8618 2.2624 12.3454 2.39429 12.5623 2.7739L15.5011 7.91668H16.291C16.3021 7.91645 16.3131 7.91645 16.3242 7.91668H17.4167C17.8539 7.91668 18.2083 8.27112 18.2083 8.70835C18.2083 9.14557 17.8539 9.50001 17.4167 9.50001H16.9387L15.7353 14.7384C15.7351 14.7395 15.7348 14.7405 15.7346 14.7416C15.4928 15.822 14.4541 16.625 13.3792 16.625H11.0948C11.0878 16.6251 11.0808 16.6251 11.0738 16.625H7.92617C7.91916 16.6251 7.91217 16.6251 7.90519 16.625H5.62796C5.07543 16.6341 4.53691 16.4502 4.10525 16.1049C3.67263 15.7588 3.37466 15.2724 3.26281 14.7299L2.13203 9.50001H1.58332C1.1461 9.50001 0.791656 9.14557 0.791656 8.70835C0.791656 8.27112 1.1461 7.91668 1.58332 7.91668H2.75547C2.76625 7.91646 2.777 7.91646 2.78772 7.91668H3.4989L6.43763 2.7739C6.65456 2.39429 7.13815 2.2624 7.51777 2.47932ZM3.75195 9.50001L4.17988 11.4792H6.63632L6.41641 9.50001H3.97222C3.96248 9.50019 3.95272 9.50019 3.94296 9.50001H3.75195ZM8.00949 9.50001L8.2294 11.4792H10.7706L10.9905 9.50001H8.00949ZM12.5836 9.50001L12.3637 11.4792H14.8595L15.3142 9.50001H15.057C15.0473 9.50019 15.0375 9.50019 15.0278 9.50001H12.5836ZM14.4958 13.0625H12.1877L11.9678 15.0417H13.3792C13.7281 15.0417 14.1135 14.7379 14.1897 14.3949L14.1909 14.3894L14.4958 13.0625ZM10.3747 15.0417L10.5947 13.0625H8.40532L8.62523 15.0417H10.3747ZM7.03215 15.0417L6.81225 13.0625H4.52222L4.81325 14.4085C4.85026 14.59 4.9497 14.7528 5.09435 14.8685C5.239 14.9842 5.41965 15.0456 5.60486 15.0418L5.62082 15.0417H7.03215Z" fill="#09090B"/>
</svg>
