<svg width="19" height="19" viewBox="0 0 19 19" fill="none" xmlns="http://www.w3.org/2000/svg">
<path fill-rule="evenodd" clip-rule="evenodd" d="M7.38796 2.63788C7.20219 2.82365 7.12504 3.02827 7.12504 3.16663V3.95829H11.875V3.16663C11.875 3.02827 11.7979 2.82365 11.6121 2.63788C11.4264 2.45211 11.2217 2.37496 11.0834 2.37496H7.91671C7.77835 2.37496 7.57373 2.45211 7.38796 2.63788ZM13.4584 3.95829V3.16663C13.4584 2.51332 13.1397 1.92627 12.7317 1.51829C12.3237 1.11031 11.7367 0.791626 11.0834 0.791626H7.91671C7.2634 0.791626 6.67635 1.11031 6.26837 1.51829C5.86039 1.92627 5.54171 2.51332 5.54171 3.16663V3.95829H2.37504C1.93782 3.95829 1.58337 4.31273 1.58337 4.74996C1.58337 5.18719 1.93782 5.54163 2.37504 5.54163H3.16671V15.8333C3.16671 16.4866 3.48539 17.0736 3.89337 17.4816C4.30135 17.8896 4.8884 18.2083 5.54171 18.2083H13.4584C14.1117 18.2083 14.6987 17.8896 15.1067 17.4816C15.5147 17.0736 15.8334 16.4866 15.8334 15.8333V5.54163H16.625C17.0623 5.54163 17.4167 5.18719 17.4167 4.74996C17.4167 4.31273 17.0623 3.95829 16.625 3.95829H13.4584ZM4.75004 5.54163V15.8333C4.75004 15.9717 4.82719 16.1763 5.01296 16.362C5.19873 16.5478 5.40335 16.625 5.54171 16.625H13.4584C13.5967 16.625 13.8014 16.5478 13.9871 16.362C14.1729 16.1763 14.25 15.9717 14.25 15.8333V5.54163H4.75004ZM7.91671 7.91663C8.35393 7.91663 8.70837 8.27107 8.70837 8.70829V13.4583C8.70837 13.8955 8.35393 14.25 7.91671 14.25C7.47948 14.25 7.12504 13.8955 7.12504 13.4583V8.70829C7.12504 8.27107 7.47948 7.91663 7.91671 7.91663ZM11.0834 7.91663C11.5206 7.91663 11.875 8.27107 11.875 8.70829V13.4583C11.875 13.8955 11.5206 14.25 11.0834 14.25C10.6461 14.25 10.2917 13.8955 10.2917 13.4583V8.70829C10.2917 8.27107 10.6461 7.91663 11.0834 7.91663Z" fill="#660708"/>
</svg>
