<svg width="19" height="19" viewBox="0 0 19 19" fill="none" xmlns="http://www.w3.org/2000/svg">
<path fill-rule="evenodd" clip-rule="evenodd" d="M6.33332 4.74996C5.02165 4.74996 3.95832 5.81328 3.95832 7.12496C3.95832 8.43664 5.02165 9.49996 6.33332 9.49996C7.645 9.49996 8.70832 8.43664 8.70832 7.12496C8.70832 5.81328 7.645 4.74996 6.33332 4.74996ZM8.90601 10.1333C9.75415 9.40733 10.2917 8.32892 10.2917 7.12496C10.2917 4.93883 8.51945 3.16663 6.33332 3.16663C4.1472 3.16663 2.37499 4.93883 2.37499 7.12496C2.37499 8.32892 2.9125 9.40733 3.76064 10.1333C3.269 10.391 2.8145 10.7234 2.41477 11.1231C1.37551 12.1623 0.791656 13.5719 0.791656 15.0416C0.791656 15.4789 1.1461 15.8333 1.58332 15.8333C2.02055 15.8333 2.37499 15.4789 2.37499 15.0416C2.37499 13.9918 2.79203 12.985 3.53436 12.2427C4.27669 11.5003 5.28351 11.0833 6.33332 11.0833C7.38314 11.0833 8.38996 11.5003 9.13229 12.2427C9.87462 12.985 10.2917 13.9918 10.2917 15.0416C10.2917 15.4789 10.6461 15.8333 11.0833 15.8333C11.5205 15.8333 11.875 15.4789 11.875 15.0416C11.875 13.5719 11.2911 12.1623 10.2519 11.1231C9.85215 10.7234 9.39765 10.391 8.90601 10.1333ZM11.875 3.95829C11.875 3.52107 12.2294 3.16663 12.6667 3.16663C13.7165 3.16663 14.7233 3.58366 15.4656 4.32599C16.208 5.06833 16.625 6.07514 16.625 7.12496C16.625 8.17477 16.208 9.18159 15.4656 9.92392C15.3927 9.99688 15.3171 10.0667 15.2393 10.1333C15.7309 10.391 16.1855 10.7233 16.5852 11.1231C17.6245 12.1623 18.2083 13.5719 18.2083 15.0416C18.2083 15.4789 17.8539 15.8333 17.4167 15.8333C16.9794 15.8333 16.625 15.4789 16.625 15.0416C16.625 13.9918 16.208 12.985 15.4656 12.2427C14.7233 11.5003 13.7165 11.0833 12.6667 11.0833C12.2294 11.0833 11.875 10.7289 11.875 10.2916C11.875 9.8544 12.2294 9.49996 12.6667 9.49996C13.2965 9.49996 13.9006 9.24974 14.346 8.80434C14.7914 8.35894 15.0417 7.75485 15.0417 7.12496C15.0417 6.49507 14.7914 5.89098 14.346 5.44558C13.9006 5.00018 13.2965 4.74996 12.6667 4.74996C12.2294 4.74996 11.875 4.39552 11.875 3.95829Z" fill="#09090B"/>
</svg>
