<svg width="46" height="31" viewBox="0 0 46 31" fill="none" xmlns="http://www.w3.org/2000/svg">
<g id="Arrow - Right">
<path id="Stroke 1" d="M0.833252 15.8798C0.833252 15.0418 1.59742 14.3492 2.58887 14.2396L2.8645 14.2245L43.4895 14.2245C44.6113 14.2245 45.5208 14.9656 45.5208 15.8798C45.5208 16.7179 44.7566 17.4104 43.7651 17.52L43.4895 17.5352L2.8645 17.5352C1.74267 17.5352 0.833252 16.794 0.833252 15.8798Z" fill="black"/>
<path id="Stroke 3" d="M25.6715 3.75634C24.8766 3.11129 24.8738 2.0632 25.6653 1.41536C26.3849 0.82642 27.5132 0.771017 28.3097 1.25045L28.538 1.41032L44.9234 14.7059C45.6482 15.2941 45.7142 16.2169 45.1212 16.8659L44.9235 17.0518L28.5381 30.3496C27.7432 30.9947 26.4571 30.9926 25.6655 30.3448C24.9458 29.7559 24.8826 28.8362 25.4743 28.1891L25.6714 28.0038L40.6107 15.8783L25.6715 3.75634Z" fill="black"/>
</g>
</svg>
