<svg width="60" height="60" viewBox="0 0 60 60" fill="none" xmlns="http://www.w3.org/2000/svg">
<g id="flag-for-flag-united-kingdom_svgrepo.com" clip-path="url(#clip0_1136_8207)">
<path id="Vector" d="M0 15.0983V21.6666H9.38L0 15.0983ZM7.77333 51.6666H21.6667V41.9383L7.77333 51.6666ZM38.3333 41.9399V51.6666H52.225L38.3333 41.9399ZM0 38.3333V44.9016L9.38333 38.3333H0ZM52.2283 8.33325H38.3333V18.0616L52.2283 8.33325ZM60 44.9033V38.3333H50.615L60 44.9033ZM60 21.6666V15.0983L50.6183 21.6666H60ZM21.6667 8.33325H7.77333L21.6667 18.0616V8.33325Z" fill="#00247D"/>
<path id="Vector_2" d="M41.9001 38.3332L58.0867 49.6682C58.8772 48.8539 59.4453 47.8501 59.7367 46.7532L47.7117 38.3332H41.9001ZM21.6667 38.3332H18.0984L1.91339 49.6666C2.78172 50.5499 3.89505 51.1816 5.14339 51.4749L21.6667 39.9049V38.3332ZM38.3334 21.6666H41.9017L58.0867 10.3332C57.2035 9.43703 56.084 8.80995 54.8584 8.5249L38.3334 20.0949V21.6666ZM18.0984 21.6666L1.91339 10.3332C1.12331 11.1482 0.554743 12.1516 0.261719 13.2482L12.2867 21.6666H18.0984Z" fill="#CF1B2B"/>
<path id="Vector_3" d="M60 34.9999H35V51.6666H38.3333V41.9399L52.225 51.6666H53.3333C54.2188 51.6667 55.0953 51.49 55.9116 51.1469C56.7278 50.8037 57.4673 50.301 58.0867 49.6683L41.9 38.3333H47.7117L59.7367 46.7533C59.8917 46.1916 60 45.6099 60 44.9999V44.9033L50.615 38.3333H60V34.9999ZM0 34.9999V38.3333H9.38333L0 44.9016V44.9999C0 46.8183 0.731667 48.4632 1.91333 49.6666L18.0983 38.3333H21.6667V39.9049L5.14333 51.4733C5.63333 51.5899 6.14 51.6666 6.66667 51.6666H7.77333L21.6667 41.9383V51.6666H25V34.9999H0ZM60 14.9999C60.001 13.2532 59.3136 11.5765 58.0867 10.3333L41.9017 21.6666H38.3333V20.0949L54.8583 8.52492C54.3591 8.40246 53.8474 8.33815 53.3333 8.33325H52.2283L38.3333 18.0616V8.33325H35V24.9999H60V21.6666H50.6183L60 15.0983V14.9999ZM21.6667 8.33325V18.0616L7.77333 8.33325H6.66667C5.78104 8.33287 4.90428 8.50961 4.08796 8.85308C3.27165 9.19655 2.53227 9.69981 1.91333 10.3333L18.0983 21.6666H12.2867L0.261667 13.2483C0.0963003 13.8178 0.00828902 14.4069 0 14.9999L0 15.0983L9.38 21.6666H0V24.9999H25V8.33325H21.6667Z" fill="#EEEEEE"/>
<path id="Vector_4" d="M35 24.9999V8.33325H25V24.9999H0V34.9999H25V51.6666H35V34.9999H60V24.9999H35Z" fill="#CF1B2B"/>
</g>
<defs>
<clipPath id="clip0_1136_8207">
<rect width="60" height="60" fill="white"/>
</clipPath>
</defs>
</svg>
