<svg width="60" height="60" viewBox="0 0 60 60" fill="none" xmlns="http://www.w3.org/2000/svg">
<g id="flag-for-flag-france_svgrepo.com">
<path id="Vector" d="M60 44.9999C60 46.768 59.2976 48.4637 58.0474 49.714C56.7971 50.9642 55.1014 51.6666 53.3333 51.6666H40V8.33325H53.3333C55.1014 8.33325 56.7971 9.03563 58.0474 10.2859C59.2976 11.5361 60 13.2318 60 14.9999V44.9999Z" fill="#ED2939"/>
<path id="Vector_2" d="M6.66667 8.33325C4.89856 8.33325 3.20286 9.03563 1.95262 10.2859C0.702379 11.5361 0 13.2318 0 14.9999L0 44.9999C0 46.768 0.702379 48.4637 1.95262 49.714C3.20286 50.9642 4.89856 51.6666 6.66667 51.6666H20V8.33325H6.66667Z" fill="#002495"/>
<path id="Vector_3" d="M20 8.33325H40V51.6666H20V8.33325Z" fill="#EEEEEE"/>
</g>
</svg>
