<svg width="22" height="20" viewBox="0 0 22 20" fill="none" xmlns="http://www.w3.org/2000/svg">
<g id="Message">
<path id="Fill 1" fill-rule="evenodd" clip-rule="evenodd" d="M10.7767 11.4647C10.1077 11.4647 9.44073 11.2437 8.88273 10.8017L4.39773 7.18574C4.07473 6.92574 4.02473 6.45274 4.28373 6.13074C4.54473 5.80974 5.01673 5.75874 5.33873 6.01774L9.81973 9.62974C10.3827 10.0757 11.1757 10.0757 11.7427 9.62574L16.1787 6.01974C16.5007 5.75674 16.9727 5.80674 17.2347 6.12874C17.4957 6.44974 17.4467 6.92174 17.1257 7.18374L12.6817 10.7957C12.1197 11.2417 11.4477 11.4647 10.7767 11.4647" fill="white"/>
<g id="Group 5">
<mask id="mask0_857_3387" style="mask-type:luminance" maskUnits="userSpaceOnUse" x="0" y="0" width="22" height="20">
<path id="Clip 4" fill-rule="evenodd" clip-rule="evenodd" d="M0 0H21.4999V19.5H0V0Z" fill="white"/>
</mask>
<g mask="url(#mask0_857_3387)">
<path id="Fill 3" fill-rule="evenodd" clip-rule="evenodd" d="M5.839 18H15.659C15.661 17.998 15.669 18 15.675 18C16.816 18 17.828 17.592 18.604 16.817C19.505 15.92 20 14.631 20 13.188V6.32C20 3.527 18.174 1.5 15.659 1.5H5.841C3.326 1.5 1.5 3.527 1.5 6.32V13.188C1.5 14.631 1.996 15.92 2.896 16.817C3.672 17.592 4.685 18 5.825 18H5.839ZM5.822 19.5C4.279 19.5 2.901 18.94 1.837 17.88C0.652 16.698 0 15.032 0 13.188V6.32C0 2.717 2.511 0 5.841 0H15.659C18.989 0 21.5 2.717 21.5 6.32V13.188C21.5 15.032 20.848 16.698 19.663 17.88C18.6 18.939 17.221 19.5 15.675 19.5H15.659H5.841H5.822Z" fill="white"/>
</g>
</g>
</g>
</svg>
