<svg width="115" height="115" viewBox="0 0 115 115" fill="none" xmlns="http://www.w3.org/2000/svg">
<circle cx="57.5" cy="57.5" r="56" fill="white" stroke="black" stroke-width="3"/>
<path d="M57.5285 19.0865C56.2855 19.312 55.1928 19.8496 54.3141 20.6764C51.7646 23.064 51.6952 27.0993 54.158 29.5621C54.9789 30.3773 55.9039 30.9034 57.1122 31.2387C57.7019 31.4006 59.4016 31.3832 60.0433 31.2098C62.1246 30.6432 63.726 29.169 64.3966 27.186C65.021 25.3592 64.7435 23.3068 63.6566 21.717C63.0611 20.8498 62.061 19.9942 61.1475 19.5837C60.0086 19.0634 58.6616 18.8784 57.5285 19.0865Z" fill="black"/>
<path d="M51.3314 32.6206C48.4871 32.9213 46.1746 34.5227 44.8969 37.0722C44.6888 37.4884 44.365 38.4366 44.2436 39.0031C44.1396 39.4714 44.1338 39.9628 44.1338 49.8141C44.1338 59.6249 44.1396 60.151 44.2379 60.4342C44.5963 61.4633 45.4808 62.1281 46.6197 62.2206C48.0593 62.342 49.308 61.3824 49.5335 59.9891C49.5739 59.7405 49.5971 56.7169 49.5971 50.953V42.2984H50.1463H50.6955L50.7129 66.1866C50.7244 89.0746 50.7302 90.0978 50.8285 90.4216C51.1927 91.6067 51.9616 92.4103 53.1063 92.8092C53.4994 92.9422 53.6497 92.9653 54.2799 92.9653C54.8175 92.9653 55.0893 92.9422 55.3436 92.8613C56.5404 92.4971 57.4075 91.6819 57.7949 90.5488L57.951 90.0805L57.9683 76.0725L57.9799 62.0703H58.5291H59.0783V75.9858C59.0783 91.2888 59.0552 90.2308 59.431 91.0171C59.8183 91.8264 60.6104 92.5028 61.5238 92.8092C61.9343 92.9422 62.0904 92.9653 62.7205 92.9653C63.2582 92.9653 63.5299 92.9422 63.7843 92.8613C64.9636 92.5086 65.7961 91.7166 66.1719 90.6124L66.3338 90.1383L66.3511 66.2155L66.3627 42.2984H66.9119H67.4611V51.0628C67.4611 60.7811 67.4438 60.2781 67.8427 60.9545C68.1144 61.4113 68.5075 61.7639 69.0221 62.001C69.7447 62.3363 70.6871 62.3305 71.4271 61.9778C71.8549 61.7755 72.3174 61.3361 72.5371 60.9256C72.9186 60.2088 72.8955 60.9141 72.8955 49.9759C72.8955 39.1766 72.9071 39.5986 72.5775 38.4539C71.8318 35.8813 69.8893 33.8289 67.4438 33.0195C66.1719 32.6033 66.565 32.6206 58.6447 32.6091C54.7366 32.6033 51.4413 32.6091 51.3314 32.6206Z" fill="black"/>
</svg>
