<svg width="20" height="22" viewBox="0 0 20 22" fill="none" xmlns="http://www.w3.org/2000/svg">
<g id="Home">
<mask id="mask0_682_7242" style="mask-type:luminance" maskUnits="userSpaceOnUse" x="0" y="0" width="20" height="22">
<path id="Clip 2" fill-rule="evenodd" clip-rule="evenodd" d="M0.833252 0.958496H19.6247V21.5675H0.833252V0.958496Z" fill="white"/>
</mask>
<g mask="url(#mask0_682_7242)">
<path id="Fill 1" fill-rule="evenodd" clip-rule="evenodd" d="M11.5736 14.6543C12.6773 14.6543 13.5756 15.5867 13.5756 16.7329V19.6807C13.5756 19.927 13.7644 20.1244 14.0064 20.1302H15.7536C17.1304 20.1302 18.2497 18.9744 18.2497 17.5542V9.19369C18.2433 8.70494 18.0205 8.24494 17.6383 7.93924L11.5947 2.90032C10.7834 2.22853 9.64859 2.22853 8.83459 2.90224L2.83226 7.93732C2.43534 8.25261 2.21259 8.71261 2.20801 9.20999V17.5542C2.20801 18.9744 3.32726 20.1302 4.70409 20.1302H6.46776C6.71617 20.1302 6.91784 19.9242 6.91784 19.6712C6.91784 19.6156 6.92426 19.56 6.93526 19.5073V16.7329C6.93526 15.5934 7.82809 14.6619 8.92351 14.6543H11.5736ZM15.7536 21.5677H13.9899C12.9798 21.5428 12.2006 20.7138 12.2006 19.6807V16.7329C12.2006 16.3793 11.9192 16.0918 11.5736 16.0918H8.92809C8.58984 16.0937 8.31026 16.3822 8.31026 16.7329V19.6712C8.31026 19.743 8.30109 19.812 8.28184 19.8772C8.18284 20.8259 7.40734 21.5677 6.46776 21.5677H4.70409C2.56917 21.5677 0.833008 19.767 0.833008 17.5542V9.20328C0.842174 8.25069 1.26201 7.37861 1.98709 6.80457L7.97751 1.77811C9.29659 0.685611 11.1345 0.685611 12.4508 1.77619L18.4843 6.80744C19.1929 7.3719 19.6128 8.24207 19.6247 9.18315V17.5542C19.6247 19.767 17.8885 21.5677 15.7536 21.5677Z" fill="white"/>
</g>
</g>
</svg>
