<svg width="38" height="38" viewBox="0 0 38 38" fill="none" xmlns="http://www.w3.org/2000/svg">
<g id="save 2" clip-path="url(#clip0_868_3363)">
<path id="Vector" fill-rule="evenodd" clip-rule="evenodd" d="M4.50981 0.161835C6.85824 0.161835 27.0494 0.0786319 27.0494 0.0786319C27.5671 0.0765225 28.3603 0.254179 28.822 0.475429C28.822 0.475429 28.5213 0.152226 28.9431 0.589101C29.3212 0.980507 37.2803 9.19301 37.436 9.35848C37.5918 9.52418 37.4924 9.43629 37.4924 9.43629C37.709 9.90668 37.8531 10.7207 37.8531 11.2389V33.6479C37.8531 35.308 35.8661 37.5428 33.9684 37.5428C32.0704 37.5428 6.18676 37.4652 4.29137 37.4652C2.39598 37.4652 0.54137 35.9957 0.457933 33.6918C0.374495 31.3874 0.54137 5.97387 0.54137 3.97301C0.54137 1.97238 2.16137 0.161835 4.50981 0.161835ZM4.07902 4.34613L4.11418 32.7055C4.11488 33.2207 4.53606 33.6437 5.05449 33.6465L33.3112 33.7961C33.4342 33.797 33.5561 33.7735 33.67 33.7269C33.7838 33.6804 33.8874 33.6118 33.9745 33.525C34.0617 33.4383 34.1308 33.3351 34.1779 33.2215C34.2249 33.1078 34.249 32.986 34.2487 32.863L34.2152 11.6839C34.2149 11.4266 34.0631 11.0708 33.8765 10.8899L27.0248 4.25309C26.8371 4.07121 26.6866 4.13519 26.6866 4.39394V12.6304C26.6866 13.4129 25.6003 14.7725 24.6164 14.7725H10.4606C9.38246 14.7725 8.21996 13.6677 8.21996 12.6304C8.21996 11.593 8.21668 4.39441 8.21668 4.39441C8.21668 4.13566 8.00762 3.92332 7.74981 3.92027L4.54496 3.88394C4.48392 3.88332 4.42336 3.89483 4.36679 3.91779C4.31023 3.94075 4.25878 3.97471 4.21544 4.0177C4.1721 4.06069 4.13772 4.11186 4.11431 4.16824C4.09089 4.22462 4.0789 4.28508 4.07902 4.34613ZM11.706 4.44926V10.9661C11.706 11.2239 11.916 11.435 12.1748 11.435H22.6516C22.9124 11.435 23.1203 11.225 23.1203 10.9661V4.44949C23.1202 4.32517 23.0708 4.20596 22.9829 4.11801C22.8951 4.03005 22.7759 3.98052 22.6516 3.98027H12.175C11.9139 3.98027 11.706 4.19004 11.706 4.44926Z" fill="white"/>
<path id="Vector_2" fill-rule="evenodd" clip-rule="evenodd" d="M19.1218 16.9214C22.913 16.9812 26.5826 20.303 26.5826 24.3577C26.5826 28.4124 23.1573 31.8066 19.3133 31.7461C15.4693 31.6854 11.6426 28.2858 11.6426 24.353C11.6426 20.4202 15.3308 16.8617 19.1218 16.9214ZM15.3348 24.2597C15.3348 26.5275 17.1359 28.2164 19.1358 28.2073C21.136 28.1981 22.8317 26.5367 22.8418 24.2956C22.8519 22.0542 21.0352 20.4633 19.0953 20.4633C17.1556 20.4633 15.3348 21.9916 15.3348 24.2597Z" fill="white"/>
</g>
<defs>
<clipPath id="clip0_868_3363">
<rect width="38" height="38" fill="white"/>
</clipPath>
</defs>
</svg>
