<svg width="38" height="38" viewBox="0 0 38 38" fill="none" xmlns="http://www.w3.org/2000/svg">
<path fill-rule="evenodd" clip-rule="evenodd" d="M4.50969 0.161835C6.85812 0.161835 27.0493 0.0786319 27.0493 0.0786319C27.567 0.0765225 28.3602 0.254179 28.8219 0.475429C28.8219 0.475429 28.5212 0.152226 28.943 0.589101C29.3211 0.980507 37.2802 9.19301 37.4359 9.35848C37.5917 9.52418 37.4923 9.43629 37.4923 9.43629C37.7089 9.90668 37.853 10.7207 37.853 11.2389V33.6479C37.853 35.308 35.866 37.5428 33.9683 37.5428C32.0703 37.5428 6.18664 37.4652 4.29125 37.4652C2.39586 37.4652 0.541248 35.9957 0.457811 33.6918C0.374373 31.3874 0.541248 5.97387 0.541248 3.97301C0.541248 1.97238 2.16125 0.161835 4.50969 0.161835ZM4.0789 4.34613L4.11406 32.7055C4.11476 33.2207 4.53594 33.6437 5.05437 33.6465L33.3111 33.7961C33.4341 33.797 33.556 33.7735 33.6699 33.7269C33.7837 33.6804 33.8873 33.6118 33.9744 33.525C34.0616 33.4383 34.1307 33.3351 34.1778 33.2215C34.2248 33.1078 34.2489 32.986 34.2486 32.863L34.2151 11.6839C34.2148 11.4266 34.063 11.0708 33.8764 10.8899L27.0247 4.25309C26.837 4.07121 26.6865 4.13519 26.6865 4.39394V12.6304C26.6865 13.4129 25.6002 14.7725 24.6163 14.7725H10.4605C9.38234 14.7725 8.21984 13.6677 8.21984 12.6304C8.21984 11.593 8.21656 4.39441 8.21656 4.39441C8.21656 4.13566 8.0075 3.92332 7.74969 3.92027L4.54484 3.88394C4.4838 3.88332 4.42324 3.89483 4.36667 3.91779C4.31011 3.94075 4.25866 3.97471 4.21532 4.0177C4.17198 4.06069 4.1376 4.11186 4.11419 4.16824C4.09077 4.22462 4.07878 4.28508 4.0789 4.34613ZM11.7059 4.44926V10.9661C11.7059 11.2239 11.9159 11.435 12.1747 11.435H22.6515C22.9123 11.435 23.1202 11.225 23.1202 10.9661V4.44949C23.1201 4.32517 23.0707 4.20596 22.9828 4.11801C22.895 4.03005 22.7758 3.98052 22.6515 3.98027H12.1749C11.9138 3.98027 11.7062 4.19027 11.7062 4.44949L11.7059 4.44926Z" fill="#21594F"/>
<path fill-rule="evenodd" clip-rule="evenodd" d="M19.1221 16.9215C22.9133 16.9813 26.5829 20.3031 26.5829 24.3578C26.5829 28.4125 23.1576 31.8067 19.3136 31.7462C15.4696 31.6855 11.6429 28.2859 11.6429 24.3531C11.6429 20.4203 15.3311 16.8618 19.1221 16.9215ZM15.3351 24.2598C15.3351 26.5276 17.1362 28.2165 19.1361 28.2074C21.1363 28.1982 22.832 26.5368 22.8421 24.2957C22.8522 22.0543 21.0355 20.4634 19.0956 20.4634C17.1559 20.4634 15.3351 21.9915 15.3351 24.2596V24.2598Z" fill="#21594F"/>
</svg>
