<svg width="26" height="22" viewBox="0 0 26 22" fill="none" xmlns="http://www.w3.org/2000/svg">
<g id="Group 10">
<path id="Fill 1" fill-rule="evenodd" clip-rule="evenodd" d="M14.8662 5.53251C14.3832 5.53251 13.9912 5.14051 13.9912 4.65751V1.83301C13.9912 1.35001 14.3832 0.958008 14.8662 0.958008C15.3492 0.958008 15.7412 1.35001 15.7412 1.83301V4.65751C15.7412 5.14051 15.3492 5.53251 14.8662 5.53251" fill="white"/>
<path id="Fill 3" fill-rule="evenodd" clip-rule="evenodd" d="M14.8662 20.8314C14.3832 20.8314 13.9912 20.4394 13.9912 19.9564V17.5962C13.9912 17.112 14.3832 16.7212 14.8662 16.7212C15.3492 16.7212 15.7412 17.112 15.7412 17.5962V19.9564C15.7412 20.4394 15.3492 20.8314 14.8662 20.8314" fill="white"/>
<path id="Fill 5" fill-rule="evenodd" clip-rule="evenodd" d="M14.8662 14.4624C14.3832 14.4624 13.9912 14.0704 13.9912 13.5874V7.96289C13.9912 7.47989 14.3832 7.08789 14.8662 7.08789C15.3492 7.08789 15.7412 7.47989 15.7412 7.96289V13.5874C15.7412 14.0704 15.3492 14.4624 14.8662 14.4624" fill="white"/>
<g id="Group 9">
<mask id="mask0_682_8008" style="mask-type:luminance" maskUnits="userSpaceOnUse" x="0" y="0" width="26" height="22">
<path id="Clip 8" fill-rule="evenodd" clip-rule="evenodd" d="M0.166748 0.666504H25.2501V21.0828H0.166748V0.666504Z" fill="white"/>
</mask>
<g mask="url(#mask0_682_8008)">
<path id="Fill 7" fill-rule="evenodd" clip-rule="evenodd" d="M1.91675 14.1457V16.4078C1.91675 18.0202 3.25025 19.3327 4.88942 19.3327H20.5274C22.1666 19.3327 23.5001 18.0202 23.5001 16.4078V14.1457C22.0406 13.7618 20.9602 12.4412 20.9602 10.8755C20.9602 9.30868 22.0394 7.98918 23.5001 7.60535L23.4989 5.34085C23.4989 3.72852 22.1654 2.41602 20.5262 2.41602H4.89058C3.25141 2.41602 1.91791 3.72852 1.91791 5.34085L1.91675 7.69518C3.39491 8.05802 4.45658 9.32502 4.45658 10.8755C4.45658 12.4412 3.37625 13.7618 1.91675 14.1457M20.5274 21.0827H4.88941C2.28541 21.0827 0.166748 18.985 0.166748 16.4079V13.3838C0.166748 12.9008 0.558748 12.5088 1.04175 12.5088C1.95991 12.5088 2.70658 11.7762 2.70658 10.8755C2.70658 10.0005 1.99025 9.34018 1.04175 9.34018C0.809581 9.34018 0.586748 9.24802 0.423415 9.08352C0.258915 8.92018 0.166748 8.69618 0.166748 8.46518L0.167915 5.34085C0.167915 2.76368 2.28658 0.666016 4.89058 0.666016H20.5262C23.1302 0.666016 25.2489 2.76368 25.2489 5.34085L25.2501 8.36718C25.2501 8.59818 25.1579 8.82218 24.9934 8.98552C24.8301 9.15002 24.6072 9.24218 24.3751 9.24218C23.4569 9.24218 22.7102 9.97485 22.7102 10.8755C22.7102 11.7762 23.4569 12.5088 24.3751 12.5088C24.8581 12.5088 25.2501 12.9008 25.2501 13.3838V16.4079C25.2501 18.985 23.1314 21.0827 20.5274 21.0827" fill="white"/>
</g>
</g>
</g>
</svg>
