<svg width="70" height="60" viewBox="0 0 70 60" fill="none" xmlns="http://www.w3.org/2000/svg">
<rect width="70" height="60" rx="13" fill="white" fill-opacity="0.8"/>
<path d="M10.3767 20.4458H17.6118V23.1183H13.0493V26.6881H16.2755V28.9789H13.0493V36.863H17.6118V39.5356H10.3767V20.4458Z" fill="black"/>
<path d="M26.3633 22.7365C25.8669 22.7365 25.4151 22.8002 25.0079 22.9274C24.6006 23.0547 24.2316 23.2202 23.9007 23.4238C23.5825 23.6147 23.2962 23.8374 23.0416 24.0919C22.7998 24.3337 22.5898 24.5755 22.4117 24.8173C21.8899 25.4918 21.489 26.2809 21.209 27.1845C20.9417 28.0753 20.8081 29.0171 20.8081 30.0098C20.8081 30.9897 20.9417 31.9315 21.209 32.8351C21.489 33.7259 21.8899 34.5086 22.4117 35.1831C22.5898 35.4249 22.7998 35.6667 23.0416 35.9085C23.2962 36.1503 23.5825 36.3731 23.9007 36.5767C24.2316 36.7803 24.6006 36.9458 25.0079 37.073C25.4151 37.2003 25.8669 37.2639 26.3633 37.2639V39.9365C25.167 39.9365 24.0407 39.6692 22.9844 39.1347C21.9408 38.6002 21.0372 37.8239 20.2736 36.8058C19.5864 35.8894 19.0582 34.8395 18.6891 33.6559C18.3201 32.4724 18.1355 31.257 18.1355 30.0098C18.1355 28.7498 18.3201 27.5281 18.6891 26.3445C19.0582 25.161 19.5864 24.111 20.2736 23.1947C21.0372 22.1766 21.9408 21.4003 22.9844 20.8657C24.0407 20.3312 25.167 20.064 26.3633 20.064V22.7365Z" fill="black"/>
<path d="M33.8131 20.4458H36.4857V39.5356H33.8131V28.9789H31.1023V39.5356H28.4297V20.4458H31.1023V26.6881H33.8131V20.4458Z" fill="black"/>
<path d="M49.6855 39.5356H46.8221L45.9057 36.2522H41.5533L40.656 39.5356H37.7926L43.5959 20.064H43.7295L49.6855 39.5356ZM45.2758 33.9423L43.7295 28.4062L42.2023 33.9423H45.2758Z" fill="black"/>
<path d="M58.2679 21.8011C58.7133 22.2338 59.0506 22.7302 59.2797 23.2902C59.5088 23.8501 59.6233 24.4355 59.6233 25.0464C59.6233 25.67 59.5088 26.2618 59.2797 26.8218C59.0506 27.3817 58.7133 27.8781 58.2679 28.3108C57.8352 28.7562 57.3389 29.0935 56.7789 29.3225C56.2189 29.5516 55.6335 29.6662 55.0226 29.6662H53.6482V39.5356H50.9756V20.4458H55.0226C55.6335 20.4458 56.2189 20.5603 56.7789 20.7894C57.3389 21.0185 57.8352 21.3557 58.2679 21.8011ZM55.0226 26.9936C55.2899 26.9936 55.5381 26.9427 55.7671 26.8409C55.9962 26.739 56.1998 26.5991 56.378 26.4209C56.5562 26.2427 56.6962 26.0391 56.798 25.81C56.8998 25.5682 56.9507 25.3137 56.9507 25.0464C56.9507 24.7792 56.8998 24.531 56.798 24.3019C56.6962 24.0728 56.5562 23.8692 56.378 23.691C56.1998 23.5129 55.9962 23.3729 55.7671 23.2711C55.5381 23.1692 55.2899 23.1183 55.0226 23.1183H53.6482V26.9936H55.0226Z" fill="black"/>
</svg>
