<svg width="70" height="60" viewBox="0 0 70 60" fill="none" xmlns="http://www.w3.org/2000/svg">
<rect width="70" height="60" rx="13" fill="white" fill-opacity="0.8"/>
<path d="M44.1875 20.7873C45.4042 22.004 46.3375 23.3873 46.9875 24.9373C47.6708 26.554 48.0125 28.2373 48.0125 29.9873C48.0125 31.754 47.6708 33.4456 46.9875 35.0623C46.3375 36.6123 45.4042 37.9956 44.1875 39.2123C44.1708 39.229 44.1542 39.2456 44.1375 39.2623C44.1375 39.279 44.1208 39.2956 44.0875 39.3123L43.8625 39.5373C43.8458 39.554 43.8292 39.5706 43.8125 39.5873C43.7958 39.5873 43.7708 39.604 43.7375 39.6373L45.6125 42.4873H41.6125L40.9875 41.5623C40.8375 41.6456 40.6875 41.7206 40.5375 41.7873C40.3875 41.854 40.2292 41.9206 40.0625 41.9873C38.4458 42.6706 36.7542 43.0123 34.9875 43.0123C33.2375 43.0123 31.5542 42.6706 29.9375 41.9873C28.4042 41.3373 27.0208 40.4123 25.7875 39.2123C24.6042 38.029 23.6792 36.6456 23.0125 35.0623C22.3292 33.4456 21.9875 31.754 21.9875 29.9873C21.9875 28.2373 22.3292 26.554 23.0125 24.9373C23.6792 23.354 24.6042 21.9706 25.7875 20.7873C27.0208 19.5873 28.4042 18.6623 29.9375 18.0123C31.5542 17.329 33.2375 16.9873 34.9875 16.9873C36.7542 16.9873 38.4458 17.329 40.0625 18.0123C41.6125 18.6623 42.9875 19.5873 44.1875 20.7873ZM41.7875 36.6623C42.6375 35.7956 43.3042 34.7956 43.7875 33.6623C44.2708 32.5123 44.5125 31.2873 44.5125 29.9873C44.5125 28.6873 44.2625 27.4623 43.7625 26.3123C43.2625 25.1456 42.5792 24.1373 41.7125 23.2873C40.8625 22.4206 39.8542 21.7373 38.6875 21.2373C37.5375 20.7373 36.3042 20.4873 34.9875 20.4873C33.6875 20.4873 32.4542 20.7373 31.2875 21.2373C30.1375 21.7373 29.1292 22.4206 28.2625 23.2873C27.4125 24.1373 26.7375 25.1456 26.2375 26.3123C25.7375 27.4623 25.4875 28.6873 25.4875 29.9873C25.4875 31.304 25.7375 32.5373 26.2375 33.6873C26.7375 34.8373 27.4125 35.8456 28.2625 36.7123C29.1292 37.579 30.1375 38.2623 31.2875 38.7623C32.4542 39.2623 33.6875 39.5123 34.9875 39.5123C35.7208 39.5123 36.4208 39.4373 37.0875 39.2873C37.7708 39.1206 38.4292 38.8956 39.0625 38.6123L33.5625 30.1873H37.5625L41.7875 36.6623Z" fill="black"/>
</svg>
