<svg width="70" height="60" viewBox="0 0 70 60" fill="none" xmlns="http://www.w3.org/2000/svg">
<rect width="70" height="60" rx="13" fill="white" fill-opacity="0.8"/>
<path d="M38.2875 20.9623C38.8208 21.529 39.2875 22.1456 39.6875 22.8123C40.1042 23.479 40.4542 24.1873 40.7375 24.9373C41.3208 26.504 41.6125 28.1873 41.6125 29.9873C41.6125 31.804 41.3208 33.4956 40.7375 35.0623C40.4542 35.8123 40.1042 36.5206 39.6875 37.1873C39.2875 37.854 38.8208 38.4706 38.2875 39.0373C37.2375 40.1706 36.0125 41.0373 34.6125 41.6373C33.2125 42.2206 31.7208 42.5123 30.1375 42.5123H28.3875V17.4873H30.1375C31.7208 17.4873 33.2125 17.7873 34.6125 18.3873C36.0125 18.9706 37.2375 19.829 38.2875 20.9623ZM31.8875 38.8373C32.8208 38.6373 33.6708 38.279 34.4375 37.7623C35.2042 37.2456 35.8542 36.604 36.3875 35.8373C36.9375 35.0706 37.3625 34.1956 37.6625 33.2123C37.9625 32.2123 38.1125 31.1373 38.1125 29.9873C38.1125 28.8373 37.9625 27.7706 37.6625 26.7873C37.3625 25.804 36.9375 24.929 36.3875 24.1623C35.8542 23.3956 35.2042 22.754 34.4375 22.2373C33.6708 21.7206 32.8208 21.3623 31.8875 21.1623V38.8373Z" fill="black"/>
</svg>
