<svg width="70" height="60" viewBox="0 0 70 60" fill="none" xmlns="http://www.w3.org/2000/svg">
<rect width="70" height="60" rx="13" fill="white" fill-opacity="0.8"/>
<path d="M36.05 27.6123C36.5667 28.1956 37.075 28.7873 37.575 29.3873C38.0917 29.9706 38.5667 30.6123 39 31.3123C40.0333 32.9623 40.55 34.6373 40.55 36.3373C40.55 36.8373 40.5167 37.3206 40.45 37.7873C40.3833 38.2373 40.2833 38.6623 40.15 39.0623C39.8833 39.879 39.475 40.604 38.925 41.2373C38.375 41.8373 37.725 42.2873 36.975 42.5873C36.2583 42.8706 35.4917 43.0123 34.675 43.0123C34.025 43.0123 33.3833 42.8873 32.75 42.6373C32.0667 42.354 31.5 41.9623 31.05 41.4623C30.8667 41.279 30.675 41.054 30.475 40.7873C30.2917 40.5206 30.125 40.204 29.975 39.8373C29.825 39.4706 29.7 39.0623 29.6 38.6123C29.5 38.1623 29.45 37.654 29.45 37.0873V37.0373H32.95V37.0873C32.95 37.5373 33 37.9206 33.1 38.2373C33.2 38.5373 33.3333 38.7873 33.5 38.9873C33.6667 39.1706 33.85 39.304 34.05 39.3873C34.25 39.4706 34.4583 39.5123 34.675 39.5123C35.4083 39.5123 35.9583 39.304 36.325 38.8873C36.8083 38.354 37.05 37.504 37.05 36.3373C37.05 35.7373 36.95 35.1623 36.75 34.6123C36.55 34.0623 36.2833 33.529 35.95 33.0123C35.6167 32.4956 35.2333 31.9873 34.8 31.4873C34.3667 30.9873 33.9167 30.479 33.45 29.9623C32.9833 29.4456 32.5167 28.9206 32.05 28.3873C31.6 27.854 31.1917 27.2956 30.825 26.7123C29.9083 25.2956 29.45 23.879 29.45 22.4623C29.45 21.779 29.5583 21.129 29.775 20.5123C29.9917 19.879 30.3 19.3123 30.7 18.8123C31.1833 18.229 31.775 17.779 32.475 17.4623C33.175 17.1456 33.9333 16.9873 34.75 16.9873C35.5167 16.9873 36.25 17.1623 36.95 17.5123C37.6 17.8456 38.1667 18.3123 38.65 18.9123C39.1 19.479 39.45 20.1456 39.7 20.9123C39.9333 21.6623 40.05 22.4456 40.05 23.2623H36.55C36.55 22.4623 36.375 21.804 36.025 21.2873C35.6917 20.754 35.2667 20.4873 34.75 20.4873C34.1667 20.4873 33.7167 20.6706 33.4 21.0373C33.2667 21.2206 33.1583 21.4373 33.075 21.6873C32.9917 21.9373 32.95 22.1956 32.95 22.4623C32.95 22.8956 33.0333 23.3206 33.2 23.7373C33.3667 24.154 33.5917 24.579 33.875 25.0123C34.1583 25.429 34.4833 25.854 34.85 26.2873C35.2333 26.7206 35.6333 27.1623 36.05 27.6123Z" fill="black"/>
</svg>
